<?xml version="1.0" encoding="UTF-8"?>
<!-- Generator: Adobe Illustrator 17.0.1, SVG Export Plug-In . SVG Version: 6.00 Build 0)  -->
<!DOCTYPE svg PUBLIC "-//W3C//DTD SVG 1.0//EN" "http://www.w3.org/TR/2001/REC-SVG-20010904/DTD/svg10.dtd">
<svg version="1.0" id="Ebene_1" xmlns="http://www.w3.org/2000/svg" xmlns:xlink="http://www.w3.org/1999/xlink" x="0px" y="0px" width="544px" height="123px" viewBox="0 0 544 123" enable-background="new 0 0 544 123" xml:space="preserve" reserveAspectRatio="xMinYMin none">
<g>
	<path fill="#A2A3A4" d="M250.798,100.209c0.653,0.481,2.213,1.163,3.971,1.163c3.773,0,4.681-2.61,4.653-4.256   c-0.028-3.092-2.695-4.34-5.446-4.34h-1.164v-1.136h1.248c2.043,0,4.625-1.162,4.625-3.716c0-1.702-0.964-3.291-3.575-3.291   c-1.418,0-2.752,0.653-3.574,1.276l-0.539-0.992c0.879-0.71,2.553-1.446,4.284-1.446c3.489,0,4.794,2.185,4.794,4.282   c0,1.873-1.192,3.519-3.433,4.37v0.056c2.298,0.454,4.17,2.213,4.17,4.879c0,2.753-1.957,5.476-6.213,5.476   c-1.872,0-3.545-0.652-4.34-1.248L250.798,100.209z"/>
	<path fill="#A2A3A4" d="M273.891,84.72c-0.539,0-1.248,0.027-2.014,0.198c-3.972,0.823-6.241,4.228-6.61,7.858h0.057   c0.851-1.362,2.524-2.581,4.794-2.581c3.376,0,5.475,2.496,5.475,5.928c0,3.206-1.986,6.411-5.73,6.411   c-3.319,0-6.014-2.694-6.014-7.744c0-3.716,1.305-6.581,3.035-8.369c1.305-1.39,3.149-2.354,5.164-2.723   c0.681-0.171,1.361-0.227,1.844-0.227V84.72z M274.203,96.237c0-3.234-1.901-4.88-4.425-4.88c-1.73,0-3.404,1.05-4.255,2.667   c-0.171,0.312-0.313,0.681-0.313,1.077c0,3.717,1.673,6.298,4.737,6.298C272.444,101.399,274.203,99.357,274.203,96.237z"/>
	<path fill="#A2A3A4" d="M289.381,92.748c0,6.609-2.355,9.786-6.042,9.786c-2.893,0-5.532-2.836-5.617-9.445   c0-6.695,2.922-9.617,6.043-9.617C286.999,83.472,289.381,86.394,289.381,92.748z M279.113,93.116c0,5.135,1.758,8.283,4.397,8.283   c3.092,0,4.482-3.488,4.482-8.511c0-4.822-1.305-8.282-4.454-8.282C281.013,84.606,279.113,87.67,279.113,93.116z"/>
	<path fill="#A2A3A4" d="M298.176,86.166c0,2.213-1.73,3.575-3.461,3.575c-2.042,0-3.375-1.59-3.375-3.377   c0-2.07,1.531-3.601,3.46-3.601C296.985,82.763,298.176,84.407,298.176,86.166z M292.418,86.337c0,1.391,0.993,2.468,2.326,2.468   c1.361,0,2.354-1.108,2.354-2.582c0-1.021-0.567-2.524-2.384-2.524C293.127,83.698,292.418,85.146,292.418,86.337z"/>
</g>
<path fill="#FFFFFF" d="M28.46,47.603l-9.292,13.363h-2.774l25.784-38.164h4.778v38.164H44.56V47.603H28.46z M44.56,45.338V25.86  h-1.25L29.956,45.338H44.56z"/>
<path fill="#FFFFFF" d="M74.738,57.003c0,6.966-1.473,10.42-3.737,12.57c-2.491,2.379-6.171,3.229-9.23,3.229  c-3.114,0-6.569-0.794-8.664-2.379l0.962-2.152c1.925,1.245,4.587,2.265,8.098,2.265c5.719,0,9.852-2.945,9.852-10.985V55.7h-0.113  c-1.416,2.776-4.587,5.266-9.457,5.266c-6.852,0-11.666-5.944-11.666-13.363c0-9.456,6.229-14.439,12.232-14.439  c5.378,0,8.041,2.945,9.173,5.211h0.113l0.169-4.588h2.492c-0.17,2.039-0.227,4.191-0.227,7.021V57.003z M72.02,44.263  c0-1.021-0.057-1.868-0.34-2.662c-1.132-3.284-3.964-6.172-8.437-6.172c-5.776,0-9.74,4.7-9.74,11.891  c0,6.117,3.228,11.383,9.627,11.383c3.681,0,7.021-2.209,8.437-6.115c0.283-0.907,0.453-1.927,0.453-2.889V44.263z"/>
<path fill="#FFFFFF" d="M81.252,47.094c0,8.665,4.701,12.118,10.363,12.118c3.963,0,6.002-0.793,7.531-1.528l0.679,2.095  c-1.019,0.564-3.794,1.755-8.55,1.755c-7.814,0-12.684-5.663-12.684-13.646c0-9.061,5.21-14.724,12.231-14.724  c8.891,0,10.589,8.382,10.589,12.288c0,0.736,0,1.133-0.113,1.643H81.252z M98.58,44.942c0.058-3.795-1.528-9.514-8.097-9.514  c-6.003,0-8.607,5.323-9.118,9.514H98.58z"/>
<path fill="#FFFFFF" d="M105.322,40.299c0-2.491-0.057-4.36-0.227-6.513h2.548l0.17,4.927h0.113c1.473-3.058,4.926-5.55,9.343-5.55  c2.605,0,9.513,1.303,9.513,11.496v16.307h-2.717v-16.08c0-4.926-1.925-9.4-7.531-9.4c-3.794,0-7.079,2.718-8.154,6.23  c-0.171,0.68-0.34,1.585-0.34,2.436v16.815h-2.718V40.299z"/>
<path fill="#FFFFFF" d="M135.412,27.786v6h7.758v2.209h-7.758v17.667c0,3.454,1.077,5.606,3.964,5.606  c1.416,0,2.435-0.17,3.114-0.398l0.34,2.041c-0.905,0.395-2.151,0.68-3.794,0.68c-1.981,0-3.624-0.625-4.643-1.928  c-1.246-1.414-1.699-3.735-1.699-6.51V35.995h-4.586v-2.209h4.586v-4.981L135.412,27.786z"/>
<path fill="#FFFFFF" d="M167.125,54.343c0,2.378,0.056,4.527,0.226,6.623h-2.549l-0.169-4.867h-0.114  c-1.358,2.547-4.472,5.492-9.286,5.492c-3.454,0-9.286-1.758-9.286-12.006V33.786h2.717v15.289c0,5.889,1.812,10.137,7.192,10.137  c3.963,0,6.852-2.776,8.041-5.494c0.283-0.848,0.509-1.924,0.509-2.999V33.786h2.719V54.343z"/>
<path fill="#FFFFFF" d="M172.186,41.94c0-2.718-0.057-5.491-0.227-8.154h2.492l0.113,5.494h0.17  c1.189-3.399,4.021-6.117,7.702-6.117c0.396,0,0.793,0.058,1.132,0.115v2.602c-0.396-0.113-0.792-0.113-1.303-0.113  c-3.737,0-6.399,3.23-7.135,7.59c-0.169,0.793-0.226,1.697-0.226,2.604v15.005h-2.718V41.94z"/>
<path fill="#FFFFFF" d="M200.52,60.966V35.995h-3.908v-2.209h3.908v-1.471c0-4.19,0.792-7.588,3.001-9.797  c1.7-1.642,3.908-2.379,6.06-2.379c1.755,0,3.227,0.454,4.077,0.906l-0.849,2.095c-0.793-0.396-1.813-0.736-3.455-0.736  c-5.096,0-6.115,4.643-6.115,9.854v1.527h7.248v2.209h-7.248v24.971H200.52z"/>
<path fill="#FFFFFF" d="M235.493,54.343c0,2.378,0.057,4.527,0.227,6.623h-2.549l-0.169-4.867h-0.114  c-1.359,2.547-4.473,5.492-9.286,5.492c-3.455,0-9.286-1.758-9.286-12.006V33.786h2.717v15.289c0,5.889,1.812,10.137,7.192,10.137  c3.963,0,6.851-2.776,8.041-5.494c0.283-0.848,0.509-1.924,0.509-2.999V33.786h2.718V54.343z M220.261,28.237  c-1.246,0-2.038-1.074-2.038-2.208c0-1.133,0.962-2.209,2.152-2.209c1.189,0,2.095,1.019,2.095,2.209  c0,1.134-0.793,2.208-2.095,2.208H220.261z M227.849,26.029c0-1.133,0.962-2.209,2.151-2.209c1.189,0,2.095,1.019,2.095,2.209  c0,1.134-0.793,2.208-2.209,2.208C228.641,28.237,227.849,27.163,227.849,26.029z"/>
<path fill="#FFFFFF" d="M240.958,41.94c0-2.718-0.056-5.491-0.227-8.154h2.492l0.113,5.494h0.17c1.19-3.399,4.021-6.117,7.702-6.117  c0.396,0,0.793,0.058,1.132,0.115v2.602c-0.396-0.113-0.792-0.113-1.303-0.113c-3.737,0-6.398,3.23-7.135,7.59  c-0.169,0.793-0.226,1.697-0.226,2.604v15.005h-2.719V41.94z"/>
<path fill="#FFFFFF" d="M310.631,47.094c0,8.665,4.699,12.118,10.361,12.118c3.964,0,6.003-0.793,7.531-1.528l0.681,2.095  c-1.02,0.564-3.795,1.755-8.551,1.755c-7.813,0-12.685-5.663-12.685-13.646c0-9.061,5.209-14.724,12.231-14.724  c8.891,0,10.591,8.382,10.591,12.288c0,0.736,0,1.133-0.115,1.643H310.631z M327.957,44.942c0.057-3.795-1.528-9.514-8.097-9.514  c-6.003,0-8.607,5.323-9.117,9.514H327.957z"/>
<path fill="#FFFFFF" d="M335.504,20.763h2.719v17.894h0.114c0.792-1.529,2.094-3.001,3.68-3.907  c1.585-1.019,3.454-1.586,5.492-1.586c2.549,0,9.458,1.303,9.458,11.44v16.362h-2.72v-16.08c0-4.926-1.926-9.344-7.475-9.344  c-3.85,0-7.02,2.774-8.21,6.116c-0.283,0.85-0.34,1.584-0.34,2.718v16.59h-2.719V20.763z"/>
<path fill="#FFFFFF" d="M361.907,41.94c0-2.718-0.056-5.491-0.225-8.154h2.49l0.113,5.494h0.17c1.188-3.399,4.021-6.117,7.7-6.117  c0.397,0,0.793,0.058,1.134,0.115v2.602c-0.397-0.113-0.794-0.113-1.303-0.113c-3.738,0-6.398,3.23-7.135,7.59  c-0.171,0.793-0.227,1.697-0.227,2.604v15.005h-2.719V41.94z"/>
<path fill="#FFFFFF" d="M429.039,47.094c0,8.665,4.7,12.118,10.361,12.118c3.965,0,6.004-0.793,7.532-1.528l0.68,2.095  c-1.02,0.564-3.793,1.755-8.55,1.755c-7.815,0-12.686-5.663-12.686-13.646c0-9.061,5.21-14.724,12.231-14.724  c8.891,0,10.59,8.382,10.59,12.288c0,0.736,0,1.133-0.114,1.643H429.039z M446.367,44.942c0.058-3.795-1.529-9.514-8.097-9.514  c-6.003,0-8.607,5.323-9.117,9.514H446.367z"/>
<path fill="#FFFFFF" d="M454.051,41.94c0-2.718-0.058-5.491-0.226-8.154h2.49l0.113,5.494h0.17c1.189-3.399,4.021-6.117,7.701-6.117  c0.397,0,0.792,0.058,1.132,0.115v2.602c-0.396-0.113-0.792-0.113-1.301-0.113c-3.738,0-6.399,3.23-7.136,7.59  c-0.17,0.793-0.227,1.697-0.227,2.604v15.005h-2.718V41.94z"/>
<path fill="#FFFFFF" d="M476.452,27.786v6h7.756v2.209h-7.756v17.667c0,3.454,1.075,5.606,3.963,5.606  c1.416,0,2.435-0.17,3.114-0.398l0.341,2.041c-0.906,0.395-2.152,0.68-3.794,0.68c-1.983,0-3.624-0.625-4.645-1.928  c-1.244-1.414-1.697-3.735-1.697-6.51V35.995h-4.588v-2.209h4.588v-4.981L476.452,27.786z"/>
<path fill="#FFFFFF" d="M498.276,23.848c-4.7,5.832-7.928,12.967-7.928,23.387c0,10.136,3.397,17.157,7.928,23.047h-2.549  c-3.906-4.871-7.983-12.005-7.983-23.103c0-11.213,4.077-18.348,7.983-23.33H498.276z"/>
<path fill="#FFFFFF" d="M497.958,47.094c0,8.665,4.701,12.118,10.363,12.118c3.965,0,6.004-0.793,7.531-1.528l0.68,2.095  c-1.019,0.564-3.794,1.755-8.55,1.755c-7.814,0-12.685-5.663-12.685-13.646c0-9.061,5.21-14.724,12.232-14.724  c8.89,0,10.589,8.382,10.589,12.288c0,0.736,0,1.133-0.113,1.643H497.958z M515.287,44.942c0.057-3.795-1.529-9.514-8.097-9.514  c-6.002,0-8.607,5.323-9.116,9.514H515.287z"/>
<path fill="#FFFFFF" d="M515.14,70.281c4.528-5.832,7.927-12.968,7.927-23.274c0-10.249-3.341-17.27-7.927-23.159h2.547  c3.907,4.869,7.985,12.005,7.985,23.217c0,11.155-4.078,18.234-7.985,23.217H515.14z"/>
<g>
	<path fill="#FFFFFF" d="M266.386,41.205c0-2.452-0.056-4.288-0.224-6.405h2.506l0.168,4.733h0.112   c1.727-3.062,4.289-5.347,8.688-5.347c3.676,0,6.518,2.45,7.688,5.85h0.109c0.726-1.616,1.728-2.785,2.729-3.621   c1.728-1.448,3.51-2.229,6.35-2.229c2.618,0,8.744,1.449,8.744,11.585v15.762h-2.674V46.05c0-6.014-2.339-9.578-6.962-9.578   c-3.341,0-5.959,2.45-7.017,5.29c-0.223,0.779-0.445,1.671-0.445,2.618v17.153h-2.673V44.825c0-4.846-2.285-8.354-6.629-8.354   c-3.564,0-6.404,2.896-7.408,6.016c-0.222,0.723-0.39,1.668-0.39,2.559v16.486h-2.672V41.205z"/>
</g>
<g>
	<path fill="#FFFFFF" d="M393.09,61.533l-9.912-37.538h2.728l5.458,21.164c1.226,4.846,2.395,9.356,3.118,12.865h0.113   c0.611-3.509,1.947-7.964,3.452-12.865l6.126-21.164h2.563l5.569,20.997c1.227,4.566,2.45,9.245,3.064,13.032h0.11   c0.836-4.065,2.062-8.131,3.398-12.921l6.182-21.108h2.729l-11.251,37.538h-2.562l-5.624-21.609   c-1.505-5.513-2.396-9.19-2.896-12.699h-0.111c-0.614,3.456-1.671,7.186-3.342,12.699l-6.405,21.609H393.09z"/>
</g>
</svg>