<?xml version="1.0" encoding="UTF-8"?>
<!-- Generator: Adobe Illustrator 21.0.0, SVG Export Plug-In . SVG Version: 6.00 Build 0)  -->
<svg version="1.1" id="Ebene_1" xmlns="http://www.w3.org/2000/svg" xmlns:xlink="http://www.w3.org/1999/xlink" x="0px" y="0px" viewBox="0 0 120 46.2" style="enable-background:new 0 0 120 46.2;" xml:space="preserve">
<style type="text/css">
	.st0{fill:#D31245;}
	.st1{fill:#74625A;}
</style>
<g>
	<path class="st0" d="M12.1,10.8c0-3.2-2.4-4.7-5-4.7c-4.6,0-6.3,2.9-6.3,4.1c0,0.8,0.6,1.2,1.2,1.2c0.8,0,1.1-0.5,1.3-1   c0.4-1.3,1.3-2.9,3.5-2.9c1.6,0,2.8,1.2,2.8,3.1V13c-4.1,0.8-9.4,2-9.4,6.3c0,2.9,2.6,4.5,6.4,4.5c1.9,0,3.9-0.6,4.5-1   c0.8-0.6,1.2-1.2,1.2-2.6V10.8z M9.4,20.2c0,1.6-1.6,2.1-3,2.1c-2.5,0-3.8-1.5-3.8-3.2c0-3.1,3.2-4.1,6.8-4.8V20.2z M26.4,8   c0-1.1-1.1-2-3.7-2c-1.8,0-3.6,0.5-4.5,0.9c-0.9,0.5-1.3,1-1.3,2v14c0,0.3,0.1,0.5,0.5,0.5h1.8c0.3,0,0.5-0.2,0.5-0.5V9.5   c0-1.2,0.9-1.9,2.4-1.9c1.9,0,1.8,1.6,3.2,1.6C26,9.2,26.4,8.7,26.4,8 M30.2,8v11.3c0,3.9,2.4,4.5,3.8,4.5c1.5,0,2.5-0.5,2.5-1.1   c0-0.3-0.2-0.6-0.7-0.6c-0.3,0-0.5,0.1-0.9,0.1c-1,0-2.1-0.5-2.1-2.9V8h2.9c0.3,0,0.5-0.1,0.5-0.5V6.9c0-0.3-0.1-0.5-0.5-0.5h-2.9   v-4c0-0.3-0.1-0.5-0.4-0.5c-0.1,0-0.2,0-0.3,0.1l-1.7,1c-0.3,0.2-0.3,0.4-0.3,0.7v2.7V8z M45.7,8v11.3c0,3.9,2.4,4.5,3.8,4.5   c1.5,0,2.5-0.5,2.5-1.1c0-0.3-0.2-0.6-0.7-0.6c-0.3,0-0.5,0.1-0.9,0.1c-1,0-2.1-0.5-2.1-2.9V8h2.9c0.3,0,0.5-0.1,0.5-0.5V6.9   c0-0.3-0.1-0.5-0.5-0.5h-2.9v-4c0-0.3-0.1-0.5-0.4-0.5c-0.1,0-0.2,0-0.3,0.1l-1.7,1c-0.3,0.2-0.3,0.4-0.3,0.7v2.7V8z M68.1,18.4   c0-0.3-0.2-0.6-0.6-0.6c-0.3,0-0.5,0.1-0.7,0.5c-0.8,1.5-2.2,3.3-4.4,3.3c-3.5,0-5.1-3.2-5.2-6.8l10-1.7c0.6-0.1,0.8-0.2,0.8-0.8   c0-3-2-6.3-6.1-6.3c-3.7,0-7.1,2.7-7.1,8.8c0,6.5,3.5,9,7.1,9C66.2,23.8,68.1,19.9,68.1,18.4 M57.1,13.3c0.2-2.9,1.5-5.8,4.5-5.8   c2.6,0,3.6,2.1,3.7,4.4L57.1,13.3z M93.9,23V11.1c0-4.2-3.5-5-5.7-5c-2.5,0-4,0.8-5,2.1c-1.1-1.3-2.5-2.1-5-2.1   c-2.2,0-3.8,0.4-4.8,0.9c-0.8,0.4-1.2,0.9-1.2,2v14c0,0.3,0.1,0.5,0.5,0.5h1.8c0.3,0,0.5-0.2,0.5-0.5V10c0-1.9,1.2-2.4,3.3-2.4   c2.2,0,3.5,1.3,3.5,3.7V23c0,0.3,0.2,0.5,0.5,0.5h1.8c0.3,0,0.5-0.2,0.5-0.5V11.1c0-2.2,1-3.6,3.3-3.6c2.2,0,3.5,1.3,3.5,3.7V23   c0,0.3,0.2,0.5,0.5,0.5h1.7C93.8,23.5,93.9,23.3,93.9,23 M112.6,14.4c0-4.4-2.1-8.4-8-8.4c-1.9,0-3.8,0.5-4.7,1.1   c-0.9,0.6-1.2,1.2-1.2,2.3v21.3c0,0.3,0.1,0.5,0.5,0.5h1.8c0.3,0,0.5-0.2,0.5-0.5v-7.8c0.5,0.3,1.7,1,3.4,1   C110.2,23.8,112.6,18.7,112.6,14.4 M109.8,14.6c0,4.4-2,7.5-5.3,7.5c-1.5,0-2.5-0.5-3.1-1V9.7c0-1.4,1-2.1,3-2.1   C107,7.6,109.8,9.7,109.8,14.6 M119.7,6.9c0-0.3-0.2-0.5-0.5-0.5h-1.8c-0.3,0-0.5,0.2-0.5,0.5V23c0,0.3,0.2,0.5,0.5,0.5h1.8   c0.3,0,0.5-0.2,0.5-0.5V6.9z M120,1.5c0-0.9-0.7-1.5-1.7-1.5c-1,0-1.7,0.7-1.7,1.5c0,0.9,0.7,1.5,1.7,1.5   C119.3,3.1,120,2.4,120,1.5"/>
	<path class="st1" d="M7,43.3C7,43.2,6.9,43,6.7,43c-0.2,0-0.3,0.1-0.4,0.3C6,44.1,5.4,45,4.2,45c-1.8,0-2.7-1.8-2.7-3.8   c0-2.3,1.1-3.5,2.3-3.5c1.2,0,1.6,1.1,1.8,1.6c0.1,0.4,0.3,0.6,0.7,0.6c0.4,0,0.7-0.3,0.7-0.7c0-0.7-0.9-2.2-3-2.2   c-2,0-3.7,1.5-3.7,4.7c0,3.4,1.8,4.7,3.7,4.7C6.1,46.2,7,44.2,7,43.3 M16.3,41.5c0-2.5-1.4-4.6-3.9-4.6c-2.5,0-3.9,2.2-3.9,4.6   c0,2.5,1.3,4.7,3.9,4.7C15,46.2,16.3,44,16.3,41.5 M14.8,41.6c0,1.8-0.6,3.7-2.4,3.7c-1.7,0-2.4-2.1-2.4-4c0-1.8,0.7-3.6,2.3-3.6   C14.2,37.7,14.8,39.8,14.8,41.6 M29.9,45.8v-6.2c0-2.2-1.8-2.6-3-2.6c-1.3,0-2.1,0.4-2.6,1.1c-0.6-0.7-1.3-1.1-2.6-1.1   c-1.1,0-2,0.2-2.5,0.5c-0.4,0.2-0.7,0.5-0.7,1v7.3c0,0.2,0.1,0.3,0.2,0.3h0.9c0.2,0,0.2-0.1,0.2-0.3V39c0-1,0.6-1.3,1.7-1.3   c1.2,0,1.8,0.7,1.8,1.9v6.2c0,0.2,0.1,0.3,0.3,0.3h0.9c0.2,0,0.2-0.1,0.2-0.3v-6.2c0-1.2,0.5-1.9,1.7-1.9c1.2,0,1.8,0.7,1.8,1.9   v6.2c0,0.2,0.1,0.3,0.3,0.3h0.9C29.8,46,29.9,45.9,29.9,45.8 M43.8,45.8v-6.2c0-2.2-1.8-2.6-3-2.6c-1.3,0-2.1,0.4-2.6,1.1   c-0.6-0.7-1.3-1.1-2.6-1.1c-1.1,0-2,0.2-2.5,0.5c-0.4,0.2-0.7,0.5-0.7,1v7.3c0,0.2,0.1,0.3,0.2,0.3h0.9c0.2,0,0.2-0.1,0.2-0.3V39   c0-1,0.6-1.3,1.7-1.3c1.2,0,1.8,0.7,1.8,1.9v6.2c0,0.2,0.1,0.3,0.3,0.3h0.9c0.2,0,0.2-0.1,0.2-0.3v-6.2c0-1.2,0.5-1.9,1.7-1.9   c1.2,0,1.8,0.7,1.8,1.9v6.2c0,0.2,0.1,0.3,0.3,0.3h0.9C43.7,46,43.8,45.9,43.8,45.8 M53,44.6v-7.2c0-0.2-0.1-0.3-0.3-0.3h-0.9   c-0.2,0-0.2,0.1-0.2,0.3v6.7c0,0.7-0.2,1.2-1.9,1.2c-1.1,0-1.9-0.6-1.9-1.8v-6.1c0-0.2-0.1-0.3-0.2-0.3h-0.9   c-0.2,0-0.3,0.1-0.3,0.3v6.2c0,2.4,2.2,2.6,3.2,2.6c1.4,0,2.4-0.3,2.8-0.5C52.7,45.5,53,45.2,53,44.6 M62.3,39.5   c0-2.2-2-2.6-3.5-2.6c-1.2,0-2.1,0.2-2.6,0.5c-0.5,0.2-0.7,0.5-0.7,1v7.3c0,0.2,0.1,0.3,0.2,0.3h0.9c0.2,0,0.3-0.1,0.3-0.3v-6.9   c0-0.6,0.1-1.2,1.8-1.2c1.6,0,2.1,1,2.1,1.9v6.2c0,0.2,0.1,0.3,0.2,0.3H62c0.2,0,0.3-0.1,0.3-0.3V39.5z M66.3,37.4   c0-0.2-0.1-0.3-0.3-0.3h-0.9c-0.2,0-0.3,0.1-0.3,0.3v8.4c0,0.2,0.1,0.3,0.3,0.3h0.9c0.2,0,0.3-0.1,0.3-0.3V37.4z M66.5,34.6   c0-0.4-0.4-0.8-0.9-0.8c-0.5,0-0.9,0.4-0.9,0.8c0,0.4,0.4,0.8,0.9,0.8C66.1,35.4,66.5,35,66.5,34.6 M75.4,43.3   c0-0.2-0.1-0.3-0.3-0.3c-0.2,0-0.3,0.1-0.4,0.3c-0.4,0.8-0.9,1.7-2.1,1.7c-1.8,0-2.7-1.8-2.7-3.8c0-2.3,1.1-3.5,2.3-3.5   c1.2,0,1.6,1.1,1.8,1.6c0.1,0.4,0.3,0.6,0.7,0.6c0.4,0,0.7-0.3,0.7-0.7c0-0.7-0.9-2.2-3-2.2c-2,0-3.7,1.5-3.7,4.7   c0,3.4,1.8,4.7,3.7,4.7C74.5,46.2,75.4,44.2,75.4,43.3 M83.2,39.4c0-1.7-1.2-2.5-2.6-2.5c-2.4,0-3.3,1.5-3.3,2.2   c0,0.4,0.3,0.7,0.6,0.7c0.4,0,0.6-0.2,0.7-0.5c0.2-0.7,0.7-1.5,1.8-1.5c0.8,0,1.4,0.7,1.4,1.6v1.2c-2.1,0.4-4.9,1-4.9,3.3   c0,1.5,1.3,2.4,3.3,2.4c1,0,2-0.3,2.4-0.5c0.4-0.3,0.6-0.6,0.6-1.3V39.4z M81.9,44.3c0,0.9-0.8,1.1-1.6,1.1c-1.3,0-2-0.8-2-1.7   c0-1.6,1.7-2.1,3.5-2.5V44.3z M89.6,45.6c0-0.2-0.1-0.3-0.3-0.3c-0.2,0-0.2,0.1-0.4,0.1c-0.5,0-1.1-0.2-1.1-1.5v-5.9h1.5   c0.2,0,0.2-0.1,0.2-0.2v-0.3c0-0.2-0.1-0.3-0.2-0.3h-1.5V35c0-0.2-0.1-0.2-0.2-0.2c-0.1,0-0.1,0-0.2,0.1l-0.9,0.5   c-0.2,0.1-0.2,0.2-0.2,0.4v1.4h-1c-0.2,0-0.2,0.1-0.2,0.3v0.3c0,0.2,0.1,0.2,0.2,0.2h1v5.9c0,2.1,1.3,2.3,2,2.3   C89,46.2,89.6,45.9,89.6,45.6 M92.9,37.4c0-0.2-0.1-0.3-0.3-0.3h-0.9c-0.2,0-0.3,0.1-0.3,0.3v8.4c0,0.2,0.1,0.3,0.3,0.3h0.9   c0.2,0,0.3-0.1,0.3-0.3V37.4z M93.1,34.6c0-0.4-0.4-0.8-0.9-0.8c-0.5,0-0.9,0.4-0.9,0.8c0,0.4,0.4,0.8,0.9,0.8   C92.7,35.4,93.1,35,93.1,34.6 M103,41.5c0-2.5-1.4-4.6-3.9-4.6c-2.5,0-3.9,2.2-3.9,4.6c0,2.5,1.3,4.7,3.9,4.7   C101.7,46.2,103,44,103,41.5 M101.5,41.6c0,1.8-0.6,3.7-2.4,3.7c-1.7,0-2.4-2.1-2.4-4c0-1.8,0.7-3.6,2.3-3.6   C100.8,37.7,101.5,39.8,101.5,41.6 M111.9,39.5c0-2.2-2-2.6-3.5-2.6c-1.2,0-2.1,0.2-2.6,0.5c-0.5,0.2-0.7,0.5-0.7,1v7.3   c0,0.2,0.1,0.3,0.2,0.3h0.9c0.2,0,0.3-0.1,0.3-0.3v-6.9c0-0.6,0.1-1.2,1.8-1.2c1.6,0,2.1,1,2.1,1.9v6.2c0,0.2,0.1,0.3,0.2,0.3h0.9   c0.2,0,0.3-0.1,0.3-0.3V39.5z M120,43.6c0-2.9-4.5-2.4-4.5-4.5c0-0.9,0.5-1.4,1.5-1.4c0.9,0,1.3,0.7,1.5,1.3   c0.1,0.3,0.3,0.5,0.7,0.5c0.3,0,0.6-0.2,0.6-0.6c0-0.6-0.7-1.9-2.7-1.9c-1.6,0-2.8,0.8-2.8,2.4c0,2.7,4.5,2.3,4.5,4.5   c0,1-0.7,1.6-1.5,1.6c-1,0-1.4-0.6-1.7-1.4c-0.1-0.3-0.4-0.6-0.7-0.6c-0.3,0-0.7,0.2-0.7,0.7c0,0.6,0.9,2.1,3,2.1   C118.8,46.2,120,45.2,120,43.6"/>
</g>
</svg>