<?xml version="1.0" encoding="UTF-8"?>
<!-- Generator: Adobe Illustrator 19.1.0, SVG Export Plug-In . SVG Version: 6.00 Build 0)  -->
<svg version="1.1" id="Ebene_1" xmlns="http://www.w3.org/2000/svg" xmlns:xlink="http://www.w3.org/1999/xlink" x="0px" y="0px" viewBox="180.5 -5.9 297.2 55.2" style="enable-background:new 180.5 -5.9 297.2 55.2;" xml:space="preserve">
<style type="text/css">
	.st0{display:none;}
	.st1{display:inline;}
	.st2{fill:#FFFFFF;}
	.st3{opacity:0.5;}
</style>
<g id="Ebene_4" class="st0">
	<rect x="152.5" y="-27.7" class="st1" width="354.3" height="105.7"/>
</g>
<g id="HILFSLINIEN">
</g>
<g id="Logo-Pfade">
	<g>
		<path class="st2" d="M181.5,42.2h-1V41h1V42.2z M180.5,43.3h1v6h-1V43.3z"/>
		<path class="st2" d="M184.3,43.3h0.9v1l0,0c0.4-0.7,1.1-1.1,1.9-1.1c1.6,0,2.1,0.9,2.1,2.2v3.9h-1v-4.1c0-0.7-0.5-1.2-1.2-1.2    c-1.2,0-1.8,0.8-1.8,1.9v3.4h-1v-6H184.3z"/>
		<path class="st2" d="M192,43.3h1v1l0,0c0.4-0.7,1.1-1.1,1.9-1.1c1.6,0,2.1,0.9,2.1,2.2v3.9h-1v-4.1c0-0.7-0.5-1.2-1.2-1.2    c-1.2,0-1.8,0.8-1.8,1.9v3.4h-1V43.3z"/>
		<path class="st2" d="M202.3,43.1c1.9,0,2.9,1.4,2.9,3.1c0,1.8-1,3.1-2.9,3.1c-1.9,0-2.9-1.4-2.9-3.1    C199.4,44.5,200.4,43.1,202.3,43.1z M202.3,48.5c1,0,1.9-0.8,1.9-2.3s-0.8-2.3-1.9-2.3c-1,0-1.9,0.8-1.9,2.3    C200.5,47.7,201.3,48.5,202.3,48.5z"/>
		<path class="st2" d="M210.4,49.3h-1.1l-2.2-6h1.1l1.7,5l0,0l1.6-5h1L210.4,49.3z"/>
		<path class="st2" d="M220.1,49.2c-0.2,0.1-0.4,0.2-0.7,0.2c-0.5,0-0.8-0.3-0.8-0.9c-0.5,0.6-1.3,0.9-2.1,0.9c-1.1,0-2-0.5-2-1.7    c0-1.4,1-1.6,2-1.8c1.1-0.2,2-0.1,2-0.9c0-0.9-0.7-1-1.3-1c-0.8,0-1.4,0.3-1.5,1.1h-1c0.1-1.5,1.2-2,2.5-2c1.1,0,2.2,0.2,2.2,1.6    v3.1c0,0.5,0,0.7,0.3,0.7c0.1,0,0.2,0,0.3-0.1v0.8H220.1z M218.5,46.2c-0.4,0.3-1.1,0.3-1.8,0.4c-0.6,0.1-1.2,0.3-1.2,1.1    c0,0.6,0.6,0.9,1.2,0.9c1.3,0,1.8-0.8,1.8-1.4V46.2z"/>
		<path class="st2" d="M223.6,43.3h1.2v0.9h-1.2v3.7c0,0.5,0.1,0.5,0.7,0.5h0.5v0.9H224c-1,0-1.4-0.2-1.4-1.3v-3.8h-1v-0.9h1v-1.8h1    C223.6,41.5,223.6,43.3,223.6,43.3z"/>
		<path class="st2" d="M228.2,42.2h-1V41h1V42.2z M227.3,43.3h1v6h-1V43.3z"/>
		<path class="st2" d="M233.8,49.3h-1.1l-2.2-6h1.1l1.7,5l0,0l1.6-5h1L233.8,49.3z"/>
		<path class="st2" d="M243.2,47.4c-0.3,1.3-1.2,2-2.6,2c-1.9,0-2.8-1.3-2.9-3.2c0-1.8,1.2-3.1,2.8-3.1c2.1,0,2.8,2,2.7,3.4h-4.5    c0,1,0.6,2,1.9,2c0.8,0,1.4-0.4,1.6-1.2L243.2,47.4L243.2,47.4z M242.3,45.7c0-0.9-0.8-1.7-1.7-1.7c-1,0-1.6,0.8-1.7,1.7H242.3z"/>
		<path class="st2" d="M247.5,48h1.3v1.3h-1.3V48z"/>
		<path class="st2" d="M254.4,42.2h-1V41h1V42.2z M253.4,43.3h1v6h-1V43.3z"/>
		<path class="st2" d="M257.2,43.3h0.9v1l0,0c0.4-0.7,1.1-1.1,1.9-1.1c1.6,0,2.1,0.9,2.1,2.2v3.9h-1v-4.1c0-0.7-0.5-1.2-1.2-1.2    c-1.2,0-1.8,0.8-1.8,1.9v3.4h-1v-6H257.2z"/>
		<path class="st2" d="M266.3,43.3h1.2v0.9h-1.2v3.7c0,0.5,0.1,0.5,0.7,0.5h0.5v0.9h-0.8c-1,0-1.4-0.2-1.4-1.3v-3.8h-1v-0.9h1v-1.8    h1C266.3,41.5,266.3,43.3,266.3,43.3z"/>
		<path class="st2" d="M275,47.4c-0.3,1.3-1.2,2-2.6,2c-1.9,0-2.8-1.3-2.9-3.2c0-1.8,1.2-3.1,2.8-3.1c2.1,0,2.8,2,2.7,3.4h-4.5    c0,1,0.6,2,1.9,2c0.8,0,1.4-0.4,1.6-1.2L275,47.4L275,47.4z M274,45.7c0-0.9-0.8-1.7-1.7-1.7c-1,0-1.6,0.8-1.7,1.7H274z"/>
		<path class="st2" d="M277.3,43.3h0.9v1.3l0,0c0.5-1,1.1-1.4,2.2-1.4v1c-1.6,0-2.2,0.9-2.2,2.4v2.7h-1L277.3,43.3L277.3,43.3z"/>
		<path class="st2" d="M287.8,49.2c-0.2,0.1-0.4,0.2-0.7,0.2c-0.5,0-0.8-0.3-0.8-0.9c-0.5,0.6-1.3,0.9-2.1,0.9c-1.1,0-2-0.5-2-1.7    c0-1.4,1-1.6,2-1.8c1.1-0.2,2-0.1,2-0.9c0-0.9-0.7-1-1.3-1c-0.8,0-1.4,0.3-1.5,1.1h-1c0.1-1.5,1.2-2,2.5-2c1.1,0,2.2,0.2,2.2,1.6    v3.1c0,0.5,0,0.7,0.3,0.7c0.1,0,0.2,0,0.3-0.1L287.8,49.2L287.8,49.2z M286.2,46.2c-0.4,0.3-1.1,0.3-1.8,0.4    c-0.6,0.1-1.2,0.3-1.2,1.1c0,0.6,0.6,0.9,1.2,0.9c1.3,0,1.8-0.8,1.8-1.4V46.2z"/>
		<path class="st2" d="M294.1,45.2c-0.2-0.8-0.7-1.2-1.5-1.2c-1.4,0-1.9,1.1-1.9,2.3c0,1.1,0.5,2.2,1.8,2.2c1,0,1.5-0.6,1.6-1.5h1    c-0.2,1.5-1.1,2.3-2.6,2.3c-1.8,0-2.8-1.3-2.8-3.1c0-1.8,0.9-3.2,2.8-3.2c1.4,0,2.4,0.6,2.6,2.1L294.1,45.2L294.1,45.2z"/>
		<path class="st2" d="M298.9,43.3h1.2v0.9h-1.2v3.7c0,0.5,0.1,0.5,0.7,0.5h0.5v0.9h-0.8c-1,0-1.4-0.2-1.4-1.3v-3.8h-1v-0.9h1v-1.8    h1V43.3z"/>
		<path class="st2" d="M303.5,42.2h-1V41h1V42.2z M302.5,43.3h1v6h-1V43.3z"/>
		<path class="st2" d="M309,49.3h-1.1l-2.2-6h1.1l1.7,5l0,0l1.6-5h1L309,49.3z"/>
		<path class="st2" d="M318.5,47.4c-0.3,1.3-1.2,2-2.6,2c-1.9,0-2.8-1.3-2.9-3.2c0-1.8,1.2-3.1,2.8-3.1c2.1,0,2.8,2,2.7,3.4H314    c0,1,0.6,2,1.9,2c0.8,0,1.4-0.4,1.6-1.2L318.5,47.4L318.5,47.4z M317.5,45.7c0-0.9-0.8-1.7-1.7-1.7c-1,0-1.6,0.8-1.7,1.7H317.5z"/>
		<path class="st2" d="M322.7,48h1.3v1.3h-1.3V48z"/>
		<path class="st2" d="M329.7,42.2h-1V41h1V42.2z M328.7,43.3h1v6h-1V43.3z"/>
		<path class="st2" d="M332.5,43.3h0.9v1l0,0c0.4-0.7,1.1-1.1,1.9-1.1c1.6,0,2.1,0.9,2.1,2.2v3.9h-1v-4.1c0-0.7-0.5-1.2-1.2-1.2    c-1.2,0-1.8,0.8-1.8,1.9v3.4h-1v-6H332.5z"/>
		<path class="st2" d="M341.6,43.3h1.2v0.9h-1.2v3.7c0,0.5,0.1,0.5,0.7,0.5h0.5v0.9H342c-1,0-1.4-0.2-1.4-1.3v-3.8h-1v-0.9h1v-1.8h1    V43.3z"/>
		<path class="st2" d="M350.2,47.4c-0.3,1.3-1.2,2-2.6,2c-1.9,0-2.8-1.3-2.9-3.2c0-1.8,1.2-3.1,2.8-3.1c2.1,0,2.8,2,2.7,3.4h-4.5    c0,1,0.6,2,1.9,2c0.8,0,1.4-0.4,1.6-1.2L350.2,47.4L350.2,47.4z M349.3,45.7c0-0.9-0.8-1.7-1.7-1.7c-1,0-1.6,0.8-1.7,1.7H349.3z"/>
		<path class="st2" d="M352.6,43.3h0.9v1l0,0c0.4-0.7,1.1-1.1,1.9-1.1c1.6,0,2.1,0.9,2.1,2.2v3.9h-1v-4.1c0-0.7-0.5-1.2-1.2-1.2    c-1.2,0-1.8,0.8-1.8,1.9v3.4h-1v-6H352.6z"/>
		<path class="st2" d="M361,47.4c0,0.9,0.8,1.2,1.6,1.2c0.6,0,1.5-0.1,1.5-0.9s-1-0.9-2-1.1s-2-0.5-2-1.7s1.2-1.7,2.2-1.7    c1.3,0,2.4,0.4,2.5,1.9h-1c-0.1-0.8-0.7-1-1.4-1c-0.6,0-1.3,0.2-1.3,0.8c0,0.7,1,0.8,2,1s2,0.5,2,1.7c0,1.4-1.3,1.9-2.6,1.9    s-2.5-0.5-2.5-2h1V47.4z"/>
		<path class="st2" d="M368.5,42.2h-1V41h1V42.2z M367.5,43.3h1v6h-1V43.3z"/>
		<path class="st2" d="M374,49.3h-1.1l-2.2-6h1.1l1.7,5l0,0l1.6-5h1L374,49.3z"/>
		<path class="st2" d="M383.5,47.4c-0.3,1.3-1.2,2-2.6,2c-1.9,0-2.8-1.3-2.9-3.2c0-1.8,1.2-3.1,2.8-3.1c2.1,0,2.8,2,2.7,3.4H379    c0,1,0.6,2,1.9,2c0.8,0,1.4-0.4,1.6-1.2L383.5,47.4L383.5,47.4z M382.5,45.7c0-0.9-0.8-1.7-1.7-1.7c-1,0-1.6,0.8-1.7,1.7H382.5z"/>
	</g>
	<g id="BRAND.">
		<path class="st2" d="M191.7,0.9c2.7,0,4.6,0.6,5.9,1.9c1.3,1.3,1.9,3,1.9,5.2c0,0.7-0.1,1.5-0.3,2.2c-0.2,0.7-0.4,1.3-0.8,1.9    c-0.4,0.6-0.8,1.1-1.4,1.5c-0.6,0.4-1.2,0.7-2,0.8v0.1c0.9,0.1,1.7,0.3,2.4,0.7s1.2,0.9,1.6,1.5c0.4,0.6,0.7,1.3,0.9,2    s0.3,1.5,0.3,2.2c0,1.2-0.2,2.4-0.5,3.4c-0.3,1-0.8,1.9-1.5,2.7c-0.7,0.7-1.6,1.3-2.7,1.7c-1.1,0.4-2.4,0.6-4,0.6h-11V0.9H191.7z     M189.7,12.1c0.8,0,1.4-0.3,1.8-0.9c0.4-0.6,0.6-1.2,0.6-2s-0.2-1.5-0.6-2.1s-1-0.9-1.8-0.9h-1.8V12h1.8V12.1z M190,24.1    c0.7,0,1.3-0.3,1.8-0.9c0.5-0.6,0.8-1.5,0.8-2.7c0-1.1-0.3-2-0.8-2.6S190.7,17,190,17h-2.1v7h2.1V24.1z"/>
		<path class="st2" d="M215.2,0.9c1.4,0,2.6,0.2,3.6,0.6s1.8,0.9,2.4,1.6c0.6,0.7,1.1,1.5,1.4,2.4c0.3,0.9,0.4,1.9,0.4,3    c0,1.9-0.4,3.5-1.2,4.6c-0.8,1.2-2,1.9-3.7,2.2l0,0c1.8,0.2,3,0.8,3.7,1.9c0.7,1.1,1,2.6,1,4.5v2.4c0,0.4,0,0.8,0,1.2s0,0.8,0,1.1    c0,0.4,0.1,0.7,0.1,1c0.1,0.3,0.1,0.5,0.2,0.7s0.2,0.3,0.3,0.5c0.1,0.1,0.3,0.3,0.5,0.4v0.4H216c-0.2-0.4-0.3-0.8-0.4-1.3    s-0.2-1-0.2-1.5s-0.1-1-0.1-1.5s0-0.8,0-1.1v-1.9c0-0.8,0-1.5-0.1-2c-0.1-0.5-0.2-1-0.4-1.3s-0.5-0.5-0.8-0.6    c-0.3-0.1-0.7-0.2-1.1-0.2h-2v11.4h-7.4V0.9H215.2z M212.5,12.9c1.1,0,1.9-0.3,2.4-0.9c0.5-0.6,0.8-1.4,0.8-2.5    c0-1.2-0.2-2.1-0.7-2.6s-1.3-0.8-2.4-0.8h-1.4v6.7L212.5,12.9L212.5,12.9z"/>
		<path class="st2" d="M241.6,0.9l7,28.6h-7.9l-0.8-5H234l-0.8,5h-7.8l6.8-28.6H241.6z M236.9,6.7l-2,12.1h4.1L236.9,6.7L236.9,6.7z    "/>
		<path class="st2" d="M259.1,0.9l4.8,17.6h0.1V0.9h7v28.6h-8.2l-5-17.6h-0.1v17.6h-7V0.9H259.1z"/>
		<path class="st2" d="M285.9,0.9c2.2,0,3.8,0.4,5,1.2c1.2,0.8,2.1,1.8,2.7,3.2c0.6,1.3,1,2.8,1.1,4.6c0.1,1.7,0.2,3.5,0.2,5.4    s-0.1,3.7-0.2,5.4c-0.1,1.7-0.5,3.2-1.1,4.6c-0.6,1.3-1.5,2.4-2.7,3.2s-2.9,1.2-5,1.2h-10.8V0.9H285.9z M284,24.1    c0.7,0,1.3-0.1,1.7-0.3c0.4-0.2,0.8-0.6,1-1.3c0.2-0.6,0.4-1.5,0.4-2.7c0.1-1.2,0.1-2.7,0.1-4.6c0-1.9,0-3.5-0.1-4.6    c-0.1-1.2-0.2-2.1-0.4-2.7c-0.2-0.6-0.6-1.1-1-1.3c-0.4-0.2-1-0.3-1.7-0.3h-1.5v17.8C282.5,24.1,284,24.1,284,24.1z"/>
		<path class="st2" d="M304.8,21.5v7.9h-6.7v-7.9H304.8z"/>
	</g>
	<g id="NEW_DAY" class="st3">
		<path class="st2" d="M317.7,0.9l4.8,17.6h0.1V0.9h7v28.6h-8.2l-5-17.6h-0.1v17.6h-7V0.9H317.7z"/>
		<path class="st2" d="M350.8,0.9V7h-9.5v4.9h8.9v5.8h-8.9v5.6h9.8v6.1h-17.3V0.9H350.8z"/>
		<path class="st2" d="M371.8,0.9l2.9,19.8h0.1l2-19.8h7.2l-4.9,28.6h-8.2l-2.5-19.2h-0.1l-2.5,19.2h-8.2l-4.9-28.6h7.2l2.2,19.8    h0.1l2.7-19.8C364.9,0.9,371.8,0.9,371.8,0.9z"/>
		<path class="st2" d="M401.5,0.9c2.2,0,3.8,0.4,5,1.2c1.2,0.8,2.1,1.8,2.7,3.2c0.6,1.3,1,2.8,1.1,4.6c0.1,1.7,0.2,3.5,0.2,5.4    s-0.1,3.7-0.2,5.4s-0.5,3.2-1.1,4.6c-0.6,1.3-1.5,2.4-2.7,3.2c-1.2,0.8-2.9,1.2-5,1.2h-10.8V0.9H401.5z M399.7,24.1    c0.7,0,1.3-0.1,1.7-0.3s0.8-0.6,1-1.3c0.2-0.6,0.4-1.5,0.4-2.7c0.1-1.2,0.1-2.7,0.1-4.6c0-1.9,0-3.5-0.1-4.6    c-0.1-1.2-0.2-2.1-0.4-2.7c-0.2-0.6-0.6-1.1-1-1.3s-1-0.3-1.7-0.3h-1.5v17.8C398.2,24.1,399.7,24.1,399.7,24.1z"/>
		<path class="st2" d="M427.5,0.9l7,28.6h-7.9l-0.8-5h-5.9l-0.8,5h-7.8l6.8-28.6H427.5z M422.8,6.7l-2,12.1h4.2L422.8,6.7L422.8,6.7    z"/>
		<path class="st2" d="M431.5,0.9h8l2.8,10h0.1l2.8-10h8.2l-7.3,17.3v11.2h-7.4V18.2L431.5,0.9z"/>
	</g>
</g>
<g id="Signet">
	<g>
		<polygon class="st2" points="468.1,-0.6 469.5,0.9 464.7,5.7 459.9,0.9 459.9,0.9 461.3,-0.6 464.7,2.8   "/>
	</g>
	<g>
		<polygon class="st2" points="476.3,-5.9 477.7,-4.5 472.9,0.3 468.1,-4.5 468.1,-4.5 469.5,-5.9 472.9,-2.5   "/>
	</g>
</g>
</svg>