<svg height="59" viewBox="0 0 249 59" width="249" xmlns="http://www.w3.org/2000/svg"><g fill="none" fill-rule="evenodd" transform="translate(0 -9)"><path d="m85.3954539 47.7917861c3.397136 0 5.6858929-1.1990172 7.4878961-3.6268727l-2.1356323-1.4879741c-1.3132212 1.7224303-2.9854234 2.5841596-5.2488286 2.5841596-3.5259228 0-6.0986195-2.7394354-6.0986195-6.574028 0-3.7584972 2.5209791-6.577113 5.9951843-6.577113 2.3161369 0 3.8068204.8349931 4.9648889 2.4278555l2.1112946-1.5136821c-1.5190775-2.1656347-3.758145-3.4448606-6.9991141-3.4448606-4.9922687 0-8.927876 3.8623572-8.927876 9.1078002 0 5.2444146 3.8585379 9.1047152 8.8508066 9.1047152zm21.9242031 0c5.016606 0 9.031311-3.8603006 9.031311-9.1047152 0-5.245443-4.014705-9.1078002-9.031311-9.1078002-5.016607 0-9.0313116 3.8623572-9.0313116 9.1078002 0 5.2444146 4.0147046 9.1047152 9.0313116 9.1047152zm0-2.5306872c-3.62733 0-6.174675-2.8186158-6.174675-6.574028 0-3.7584972 2.547345-6.577113 6.174675-6.577113 3.629358 0 6.174674 2.8186158 6.174674 6.577113 0 3.7554122-2.545316 6.574028-6.174674 6.574028zm24.657122-2.7394354c2.290785-1.0704776 3.500571-3.1836682 3.500571-5.9231037 0-4.095785-2.651794-6.7838046-7.463558-6.7838046h-4.476107v17.7415464h2.753201v-4.2263813h1.722906c.437064 0 .876157-.0257079 1.261503-.0771237l2.98441 4.303505h3.267335zm-5.685893-1.5918341v-8.6368312h1.621499c3.34339 0 4.733681 1.6185704 4.733681 4.3055616 0 2.7137276-1.363925 4.3312696-4.733681 4.3312696zm16.556728 6.6264722h2.599063v-11.5058345l5.94448 7.2270091h.128787l5.968819-7.2270091v11.5058345h2.598048v-18.1076271h-.127773l-8.439094 9.9942091-8.542529-9.9942091h-.129801zm27.379902-2.4782431h7.821525l1.003929 2.4782431h2.906326l-7.692738-18.1076271h-.153125l-7.6684 18.1076271h2.779567zm6.792243-2.478243h-5.762962l2.908354-7.0182608s2.880974 7.0182608 2.854608 7.0182608zm25.076948 5.2166502h.204842v-18.0017105h-2.572697v11.6631669l-11.218661-11.923331h-.204842v18.0017105h2.572697v-11.6611103zm14.89568-.0246796c3.781469 0 6.663457-2.1646065 6.663457-6.495876v-11.4811549h-2.753201v11.3227941c0 2.8443237-1.390291 4.1235496-3.910256 4.1235496-2.548359 0-3.937635-1.2792259-3.937635-4.1235496v-11.3227941h-2.753201v11.4811549c0 4.3312695 2.880974 6.495876 6.690836 6.495876zm14.676642-.2354845h2.597034v-11.5058345l5.944481 7.2270091h.127773l5.969832-7.2270091v11.5058345h2.600077v-18.1076271h-.129801l-8.440108 9.9942091-8.541515-9.9942091h-.127773z" fill="#262420"/><path d="m45.0646232 49.3851124h-.0115246c-3.5314705 5.1370584-9.3028316 8.2056035-15.4750846 8.2056035-10.3984929 0-18.8592046-8.5787373-18.8592046-19.1241482 0-10.5437415 8.4607117-19.1224788 18.8592046-19.1224788 5.9911519 0 11.6645539 2.9291417 15.2141344 7.8316351l.0090551-.0008348 7.9651533-5.8407536c-5.3926953-7.4918913-14.0501485-11.96281835-23.1883428-11.96281835-15.8216461 0-28.69299151 13.05300335-28.69299151 29.09525045 0 16.0439166 12.87134541 29.0960851 28.69299151 29.0960851 9.4147849 0 18.221235-4.685458 23.5884115-12.5346228z" fill="#262420"/><path d="m52.8430778 21.43681-.0740868-.1043439-7.9692693 5.8424231.07491.1043439c2.329618 3.2672159 3.5611052 7.1354526 3.5611052 11.1881693 0 3.8824275-1.1401134 7.6212778-3.2993319 10.8116966l-.0716172.1060134 8.1050951 5.6454218.0716172-.1068481c3.2894536-4.8565821 5.0288469-10.5470805 5.0288469-16.4562837 0-6.1629675-1.8776886-12.0529715-5.4272692-17.0305924" fill="#b27e71"/></g></svg>