<svg width="645" height="217" viewBox="0 0 645 217" version="1.1" xmlns="http://www.w3.org/2000/svg" xmlns:xlink="http://www.w3.org/1999/xlink">
  <title>redlogo</title>
  <desc>Created using Figma</desc>
  <g id="Canvas" transform="translate(-211 1480)">
    <g id="redlogo">
      <g id="Group">
        <g id="Vector">
          <use xlink:href="#path0_fill" transform="translate(449.468 -1422.23)" fill="#FFF"/>
        </g>
        <g id="Vector">
          <use xlink:href="#path1_fill" transform="translate(517.857 -1422.26)" fill="#FFF"/>
        </g>
        <g id="Vector">
          <use xlink:href="#path2_fill" transform="translate(593.806 -1446.67)" fill="#FFF"/>
        </g>
        <g id="Vector">
          <use xlink:href="#path3_fill" transform="translate(662.229 -1422.26)" fill="#FFF"/>
        </g>
        <g id="Vector">
          <use xlink:href="#path4_fill" transform="translate(737.01 -1422.13)" fill="#FFF"/>
        </g>
        <g id="Vector">
          <use xlink:href="#path5_fill" transform="translate(799.9 -1422.26)" fill="#FFF"/>
        </g>
      </g>
      <g id="Group">
        <g id="Group">
          <g id="Vector">
            <use xlink:href="#path6_fill" transform="translate(359.752 -1465.96)" fill="url(#paint6_linear)"/>
          </g>
          <g id="Vector">
            <use xlink:href="#path7_fill" transform="translate(276.795 -1334.84)" fill="url(#paint7_linear)"/>
          </g>
          <g id="Vector">
            <use xlink:href="#path8_fill" transform="translate(372.862 -1356.77)" fill="url(#paint8_linear)"/>
          </g>
          <g id="Vector">
            <use xlink:href="#path9_fill" transform="translate(352.889 -1337.91)" fill="url(#paint9_linear)"/>
          </g>
          <g id="Vector">
            <use xlink:href="#path10_fill" transform="translate(271.569 -1348.44)" fill="url(#paint10_linear)"/>
          </g>
          <g id="Vector">
            <use xlink:href="#path11_fill" transform="translate(241.951 -1368.89)" fill="url(#paint11_linear)"/>
          </g>
          <g id="Vector">
            <use xlink:href="#path12_fill" transform="translate(211 -1398.05)" fill="url(#paint12_linear)"/>
          </g>
          <g id="Vector">
            <use xlink:href="#path13_fill" transform="translate(376.283 -1417.91)" fill="url(#paint13_linear)"/>
          </g>
          <g id="Vector">
            <use xlink:href="#path14_fill" transform="translate(290.057 -1480)" fill="url(#paint14_linear)"/>
          </g>
          <g id="Vector">
            <use xlink:href="#path15_fill" transform="translate(262.653 -1430.36)" fill="url(#paint15_linear)"/>
          </g>
          <g id="Vector">
            <use xlink:href="#path16_fill" transform="translate(282.448 -1428.52)" fill="url(#paint16_linear)"/>
          </g>
          <g id="Vector">
            <use xlink:href="#path17_fill" transform="translate(303.034 -1373.79)" fill="url(#paint17_linear)"/>
          </g>
        </g>
      </g>
    </g>
  </g>
  <defs>
    <linearGradient id="paint6_linear" x1="0" y1="0" x2="1" y2="0" gradientUnits="userSpaceOnUse" gradientTransform="matrix(0 -206.955 206.902 0 -87.2374 212.911)">
      <stop offset="0" stop-color="#FFF"/>
      <stop offset="0.1542" stop-color="#FFF"/>
      <stop offset="0.4805" stop-color="#FFF"/>
      <stop offset="0.9491" stop-color="#FFF"/>
      <stop offset="1" stop-color="#FFF"/>
    </linearGradient>
    <linearGradient id="paint7_linear" x1="0" y1="0" x2="1" y2="0" gradientUnits="userSpaceOnUse" gradientTransform="matrix(0 -284.869 284.796 0 -128.584 123.886)">
      <stop offset="0" stop-color="#FFF"/>
      <stop offset="0.1542" stop-color="#FFF"/>
      <stop offset="0.4805" stop-color="#FFF"/>
      <stop offset="0.9491" stop-color="#FFF"/>
      <stop offset="1" stop-color="#FFF"/>
    </linearGradient>
    <linearGradient id="paint8_linear" x1="0" y1="0" x2="1" y2="0" gradientUnits="userSpaceOnUse" gradientTransform="matrix(0 -348.449 348.36 0 -153.62 274.22)">
      <stop offset="0" stop-color="#FFF"/>
      <stop offset="0.1542" stop-color="#FFF"/>
      <stop offset="0.4805" stop-color="#FFF"/>
      <stop offset="0.9491" stop-color="#FFF"/>
      <stop offset="1" stop-color="#FFF"/>
    </linearGradient>
    <linearGradient id="paint9_linear" x1="0" y1="0" x2="1" y2="0" gradientUnits="userSpaceOnUse" gradientTransform="matrix(0 -249.214 249.15 0 -118.525 157.753)">
      <stop offset="0" stop-color="#FFF"/>
      <stop offset="0.1542" stop-color="#FFF"/>
      <stop offset="0.4805" stop-color="#FFF"/>
      <stop offset="0.9491" stop-color="#FFF"/>
      <stop offset="1" stop-color="#FFF"/>
    </linearGradient>
    <linearGradient id="paint10_linear" x1="0" y1="0" x2="1" y2="0" gradientUnits="userSpaceOnUse" gradientTransform="matrix(0 -194.526 194.476 0 -89.485 79.3063)">
      <stop offset="0" stop-color="#FFF"/>
      <stop offset="0.1542" stop-color="#FFF"/>
      <stop offset="0.4805" stop-color="#FFF"/>
      <stop offset="0.9491" stop-color="#FFF"/>
      <stop offset="1" stop-color="#FFF"/>
    </linearGradient>
    <linearGradient id="paint11_linear" x1="0" y1="0" x2="1" y2="0" gradientUnits="userSpaceOnUse" gradientTransform="matrix(0 -121.317 121.286 0 -44.459 50.2732)">
      <stop offset="0" stop-color="#FFF"/>
      <stop offset="0.1542" stop-color="#FFF"/>
      <stop offset="0.4805" stop-color="#FFF"/>
      <stop offset="0.9491" stop-color="#FFF"/>
      <stop offset="1" stop-color="#FFF"/>
    </linearGradient>
    <linearGradient id="paint12_linear" x1="0" y1="0" x2="1" y2="0" gradientUnits="userSpaceOnUse" gradientTransform="matrix(0 -64.4151 64.3986 0 -2.18828 29.7243)">
      <stop offset="0" stop-color="#FFF"/>
      <stop offset="0.1542" stop-color="#FFF"/>
      <stop offset="0.4805" stop-color="#FFF"/>
      <stop offset="0.9491" stop-color="#FFF"/>
      <stop offset="1" stop-color="#FFF"/>
    </linearGradient>
    <linearGradient id="paint13_linear" x1="0" y1="0" x2="1" y2="0" gradientUnits="userSpaceOnUse" gradientTransform="matrix(0 -135.884 135.849 0 -53.8518 129.523)">
      <stop offset="0" stop-color="#FFF"/>
      <stop offset="0.1542" stop-color="#FFF"/>
      <stop offset="0.4805" stop-color="#FFF"/>
      <stop offset="0.9491" stop-color="#FFF"/>
      <stop offset="1" stop-color="#FFF"/>
    </linearGradient>
    <linearGradient id="paint14_linear" x1="0" y1="0" x2="1" y2="0" gradientUnits="userSpaceOnUse" gradientTransform="matrix(0 -626.093 625.933 0 -303.392 467.4)">
      <stop offset="0" stop-color="#FFF"/>
      <stop offset="0.1542" stop-color="#FFF"/>
      <stop offset="0.4805" stop-color="#FFF"/>
      <stop offset="0.9491" stop-color="#FFF"/>
      <stop offset="1" stop-color="#FFF"/>
    </linearGradient>
    <linearGradient id="paint15_linear" x1="0" y1="0" x2="1" y2="0" gradientUnits="userSpaceOnUse" gradientTransform="matrix(0 -317.944 317.863 0 -149.299 179.475)">
      <stop offset="0" stop-color="#FFF"/>
      <stop offset="0.1542" stop-color="#FFF"/>
      <stop offset="0.4805" stop-color="#FFF"/>
      <stop offset="0.9491" stop-color="#FFF"/>
      <stop offset="1" stop-color="#FFF"/>
    </linearGradient>
    <linearGradient id="paint16_linear" x1="0" y1="0" x2="1" y2="0" gradientUnits="userSpaceOnUse" gradientTransform="matrix(0 -213.604 213.549 0 -63.8547 170.423)">
      <stop offset="0" stop-color="#FFF"/>
      <stop offset="0.1542" stop-color="#FFF"/>
      <stop offset="0.4805" stop-color="#FFF"/>
      <stop offset="0.9491" stop-color="#FFF"/>
      <stop offset="1" stop-color="#FFF"/>
    </linearGradient>
    <linearGradient id="paint17_linear" x1="0" y1="0" x2="1" y2="0" gradientUnits="userSpaceOnUse" gradientTransform="matrix(0 -122.967 122.935 0 -30.2359 88.571)">
      <stop offset="0" stop-color="#FFF"/>
      <stop offset="0.1542" stop-color="#FFF"/>
      <stop offset="0.4805" stop-color="#FFF"/>
      <stop offset="0.9491" stop-color="#FFF"/>
      <stop offset="1" stop-color="#FFF"/>
    </linearGradient>
    <path id="path0_fill" d="M 28.249 4.19617e-06C 20.3448 4.19617e-06 12.7155 3.50625 7.42313 9.4875L 7.42313 3.64375C 7.42313 1.61562 5.73919 4.19617e-06 3.64285 4.19617e-06C 1.64961 4.19617e-06 0 1.68437 0 3.64375L 0 79.0281C 0 81.0219 1.68398 82.6719 3.64285 82.6719C 5.73919 82.6719 7.42313 81.0219 7.42313 79.0281L 7.42313 48.8469C 12.6812 54.8969 20.276 58.4375 28.249 58.4375C 43.9543 58.4375 56.7042 45.3063 56.7042 29.15C 56.7042 21.3469 53.7487 14.025 48.4219 8.525C 43.0608 3.025 35.8783 4.19617e-06 28.249 4.19617e-06ZM 49.2811 29.1844C 49.2811 35.0281 47.0817 40.5625 43.1296 44.6875C 39.1775 48.8125 33.8851 51.1156 28.249 51.1844C 16.7707 51.0812 7.42313 41.2156 7.42313 29.2188L 7.42313 28.325C 7.62933 22.6875 9.93185 17.4281 13.8496 13.5094C 17.7673 9.625 22.8536 7.45938 28.2147 7.45938C 33.8507 7.45938 39.1431 9.69375 43.0952 13.7844C 47.0817 17.8406 49.2811 23.3062 49.2811 29.1844Z"/>
    <path id="path1_fill" d="M 52.0992 0.0343792C 50.0372 0.0343792 48.4563 1.65 48.4563 3.67812L 48.4563 9.59062C 43.2327 3.54062 35.7065 -8.39233e-06 27.871 -8.39233e-06C 12.5093 -8.39233e-06 0 13.2 0 29.425C 0 45.65 12.5093 58.85 27.871 58.85C 35.6378 58.85 43.1639 55.275 48.4563 49.1562L 48.4563 55.2063C 48.4563 57.2 50.1403 58.85 52.0992 58.85C 54.0581 58.85 55.742 57.1656 55.742 55.2063L 55.742 3.67812C 55.7764 1.65 54.1612 0.0343792 52.0992 0.0343792ZM 48.4563 29.425C 48.4563 41.5938 39.2119 51.5281 27.871 51.5281C 16.5302 51.5281 7.28562 41.6281 7.28562 29.425C 7.28562 17.1875 16.5302 7.21874 27.871 7.21874C 39.2119 7.21874 48.4563 17.1875 48.4563 29.425Z"/>
    <path id="path2_fill" d="M 28.4551 24.4406C 20.3447 24.4406 12.7843 27.9125 7.42313 34.0656L 7.42313 3.64375C 7.42313 1.61563 5.73919 -8.39233e-06 3.64285 -8.39233e-06C 1.64961 -8.39233e-06 0 1.68438 0 3.64375L 0 79.6125C 0 81.6063 1.68398 83.2562 3.64285 83.2562C 5.73919 83.2562 7.42313 81.6063 7.42313 79.6125L 7.42313 73.7688C 12.7843 79.8531 20.3104 83.2562 28.4551 83.2562C 44.1605 83.2562 56.9105 70.125 56.9105 53.9687C 56.9105 46.0625 53.9549 38.6719 48.6282 33.1031C 43.3014 27.5 36.1188 24.4406 28.4551 24.4406ZM 49.5217 53.9687C 49.5217 66.0344 40.071 75.8313 28.4895 75.8313C 16.8738 75.8313 7.45753 66.0344 7.45753 53.9687L 7.45753 53.075C 7.66373 47.3687 9.9662 42.0406 13.9183 38.0531C 17.8704 34.0656 23.0597 31.9 28.4895 31.9C 40.071 31.8656 49.5217 41.7656 49.5217 53.9687Z"/>
    <path id="path3_fill" d="M 52.0992 0.0343792C 50.0372 0.0343792 48.4564 1.65 48.4564 3.67812L 48.4564 9.59062C 43.2327 3.54062 35.7065 -8.39233e-06 27.8711 -8.39233e-06C 12.5094 -8.39233e-06 3.35607e-05 13.2 3.35607e-05 29.425C 3.35607e-05 45.65 12.5094 58.85 27.8711 58.85C 35.6378 58.85 43.164 55.275 48.4564 49.1562L 48.4564 55.2063C 48.4564 57.2 50.1403 58.85 52.0992 58.85C 54.0581 58.85 55.7419 57.1656 55.7419 55.2063L 55.7419 3.67812C 55.7419 1.65 54.1268 0.0343792 52.0992 0.0343792ZM 48.422 29.425C 48.422 41.5938 39.1775 51.5281 27.8367 51.5281C 16.4958 51.5281 7.25133 41.6281 7.25133 29.425C 7.25133 17.1875 16.4958 7.21874 27.8367 7.21874C 39.1775 7.21874 48.422 17.1875 48.422 29.425Z"/>
    <path id="path4_fill" d="M 24.022 0C 17.6643 0 11.6502 2.50938 7.18257 6.94375L 7.18257 3.67813C 7.18257 1.65 5.60162 0.0343666 3.64275 0.0343666C 1.58078 0.0343666 6.71215e-05 1.65 6.71215e-05 3.67813L 6.71215e-05 55.0688L 6.71215e-05 56.1L 0.137498 56.2375C 0.171865 56.4094 0.20613 56.6156 0.377961 56.8219C 0.859088 57.7156 1.71834 58.4031 2.71496 58.6781L 2.81799 58.7125L 3.64275 58.7125C 4.77683 58.7125 5.80782 58.1969 6.39205 57.3375C 6.87317 56.8219 7.0107 56.2031 7.14817 55.7219L 7.18257 55.6187L 7.18257 24.0625C 7.38877 14.8156 14.9493 7.2875 24.022 7.2875C 33.2321 7.2875 40.7582 14.7813 40.7582 24.0281L 40.7582 55.0344C 40.7582 57.0969 42.3735 58.6781 44.4011 58.6781C 46.4287 58.6781 48.0439 57.0625 48.0439 55.0344L 48.0439 24.0625C 48.0783 10.7938 37.2874 0 24.022 0Z"/>
    <path id="path5_fill" d="M 52.0991 0.0343792C 50.0371 0.0343792 48.4564 1.65 48.4564 3.67812L 48.4564 9.59062C 43.2327 3.54062 35.7064 -8.39233e-06 27.8709 -8.39233e-06C 12.5092 -8.39233e-06 6.71215e-05 13.2 6.71215e-05 29.425C 6.71215e-05 45.65 12.5092 58.85 27.8709 58.85C 35.6377 58.85 43.164 55.275 48.4564 49.1562L 48.4564 55.2063C 48.4564 57.2 50.1402 58.85 52.0991 58.85C 54.058 58.85 55.7419 57.1656 55.7419 55.2063L 55.7419 3.67812C 55.7763 1.65 54.1611 0.0343792 52.0991 0.0343792ZM 48.4564 29.425C 48.4564 41.5938 39.2118 51.5281 27.8709 51.5281C 16.5301 51.5281 7.2856 41.6281 7.2856 29.425C 7.2856 17.1875 16.5301 7.21874 27.8709 7.21874C 39.2118 7.21874 48.4564 17.1875 48.4564 29.425Z"/>
    <path id="path6_fill" d="M 20.9839 23.8313C 29.5067 12.9688 34.3524 2.41567 31.7405 0.35317C 29.1287 -1.70933 19.9873 5.47505 11.4645 16.3375C 2.94166 27.2 -1.90399 37.7532 0.707842 39.8157C 3.31967 41.8782 12.4611 34.6594 20.9839 23.8313Z"/>
    <path id="path7_fill" d="M 19.537 37.8343C 26.479 18.1718 29.572 1.15615 26.4447 0.0561512C 23.3174 -1.04385 15.0695 14.1499 8.12748 33.8124C 1.18551 53.4749 -1.9074 70.4905 1.21993 71.5905C 4.34725 72.6905 12.5951 57.4968 19.537 37.8343Z"/>
    <path id="path8_fill" d="M 17.2207 19.4438C 28.3897 26.8688 39.0432 30.65 40.8646 27.8656C 42.7204 25.0813 35.0911 16.7625 23.9221 9.33751C 12.7531 1.91251 2.09953 -1.86874 0.27812 0.915639C -1.57765 3.70001 6.05166 12.0531 17.2207 19.4438Z"/>
    <path id="path9_fill" d="M 1.21258 9.72849C 3.24019 12.4097 7.02045 12.9253 9.70102 10.8972C 12.3816 8.86909 12.8971 5.08785 10.8695 2.4066C 8.84191 -0.274648 5.06157 -0.790281 2.381 1.23784C -0.265195 3.26597 -0.780655 7.04724 1.21258 9.72849Z"/>
    <path id="path10_fill" d="M 4.45249 2.49365C 0.569106 5.41552 -1.08049 9.78117 0.74092 12.1874C 2.56233 14.5937 7.23617 14.1811 11.0852 11.2593C 14.9342 8.3374 16.6181 3.97179 14.7967 1.56554C 12.9753 -0.84071 8.3015 -0.428227 4.45249 2.49365Z"/>
    <path id="path11_fill" d="M 14.2072 2.24815C 5.37513 5.30752 -0.948248 10.395 0.117104 13.5231C 1.18246 16.6856 9.32724 16.7544 18.1594 13.695C 26.9915 10.6356 33.3492 5.58252 32.2495 2.42002C 31.1498 -0.742478 23.0394 -0.811228 14.2072 2.24815Z"/>
    <path id="path12_fill" d="M 30.2777 0.127371C 13.7819 -0.560129 0.138546 1.6055 0.00108162 4.93987C -0.136383 8.27425 13.2664 11.5399 29.7622 12.2274C 46.2579 12.9149 59.9013 10.7492 60.0388 7.41485C 60.1763 4.08048 46.7734 0.814871 30.2777 0.127371Z"/>
    <path id="path13_fill" d="M 11.7721 2.41548C 4.14285 5.57798 -1.0808 10.6655 0.190754 13.7592C 1.4623 16.853 8.74792 16.7842 16.4116 13.6217C 24.0409 10.4592 29.2645 5.37174 27.993 2.27799C 26.7214 -0.81576 19.4014 -0.747023 11.7721 2.41548Z"/>
    <path id="path14_fill" d="M 15.314 20.4053C 11.087 8.13347 5.00423 -1.01027 1.8769 0.0897323C -1.25042 1.18973 -0.391333 12.121 3.87007 24.3585C 8.09712 36.596 14.18 45.7741 17.3073 44.6741C 20.4346 43.5741 19.5411 32.6428 15.314 20.4053Z"/>
    <path id="path15_fill" d="M 13.3685 3.65812C 8.48848 -0.157508 2.81808 -1.15439 0.756104 1.45811C -1.30587 4.07061 0.996634 9.36437 5.87663 13.18C 10.7566 16.9956 16.427 17.9925 18.489 15.38C 20.551 12.7675 18.2485 7.47374 13.3685 3.65812Z"/>
    <path id="path16_fill" d="M 42.9233 8.39233e-06C 19.2107 8.39233e-06 0 19.1813 0 42.9C 0 54.45 4.63947 65.5188 12.9217 73.5969L 20.6197 63.9719C 15.6366 58.5063 12.2 50.875 12.2 42.9344C 12.2 25.9531 25.9808 12.2031 42.9577 12.2031C 59.9346 12.2031 73.6811 25.9531 73.6811 42.9344C 73.6811 43.8969 73.6124 44.8594 73.4749 45.8219L 85.5031 48.7438C 88.6992 25.2313 72.2378 3.60937 48.7313 0.412492C 46.7724 0.137492 44.8479 8.39233e-06 42.9233 8.39233e-06Z"/>
    <path id="path17_fill" d="M 50.7245 -8.39233e-06C 44.2293 15.675 26.2902 23.1344 10.6192 16.6375C 9.45072 16.1562 8.35099 15.6063 7.25127 14.9875L 3.60842 19.9719L -3.35607e-05 24.9219C 20.2417 37.2625 46.6349 30.8344 58.9724 10.5875C 60.347 8.31876 61.5155 5.94688 62.4434 3.47188L 56.6012 1.71874L 50.7245 -8.39233e-06Z"/>
  </defs>
</svg>