<?xml version="1.0" encoding="UTF-8"?>
<!-- Generator: Adobe Illustrator 26.2.1, SVG Export Plug-In . SVG Version: 6.00 Build 0)  -->
<svg version="1.1" id="Ebene_1" xmlns="http://www.w3.org/2000/svg" xmlns:xlink="http://www.w3.org/1999/xlink" x="0px" y="0px" viewBox="0 0 634.3 127.6" style="enable-background:new 0 0 634.3 127.6;" xml:space="preserve">
<style type="text/css">
	.st0{fill:#FCFCFC;}
</style>
<g>
	<g>
		<g>
			<path id="SVGID_00000175293027091307849180000005605100226328681124_" class="st0" d="M107,26.8L78.8,54.4L50.6,26.8     C47.9,24.3,46.1,23,42,23c-6.2,0-9.5,2.6-9.5,7.6c0,3,1.1,4.5,3.5,6.7l33.1,30.8v24.7c0,5.1,3.2,7.6,9.4,7.6s9.4-2.5,9.4-7.6     V68.1l33-30.9c2.3-2.1,3.5-3.5,3.5-6.6c0-5-3.1-7.6-8.8-7.6C111.4,23.1,109.6,24.3,107,26.8"/>
		</g>
	</g>
	<g>
		<path class="st0" d="M182.3,60.6c0-2.9-3.6-4.3-10.7-4.3h-24c-7.2,0-10.7,1.4-10.7,4.3v20.7c0,2.9,3.5,4.3,10.7,4.3h24    c7.1,0,10.7-1.4,10.7-4.3V60.6z M148.4,100.1c-19.8,0-29.7-6.3-29.7-19V60.8c0-12.6,9.9-18.9,29.7-18.9h22.3    c19.9,0,29.8,6.3,29.8,18.9v20.3c0,12.7-9.9,19-29.8,19H148.4z"/>
		<path class="st0" d="M215,27.3c0-5,3.1-7.5,9.1-7.5c6.2,0,9.2,2.5,9.2,7.5V93c0,5.1-3,7.6-9.1,7.6S215,98.1,215,93V27.3z"/>
		<path class="st0" d="M311.4,60.6c0-2.9-3.6-4.3-10.7-4.3h-24c-7.2,0-10.7,1.4-10.7,4.3v20.7c0,2.9,3.5,4.3,10.7,4.3h24    c7.1,0,10.7-1.4,10.7-4.3V60.6z M277.5,100.1c-19.8,0-29.7-6.3-29.7-19V60.8c0-12.6,9.9-18.9,29.7-18.9h22.3    c19.9,0,29.8,6.3,29.8,18.9v20.3c0,12.7-9.9,19-29.8,19H277.5z"/>
	</g>
	<g>
		<path class="st0" d="M451.8,53.2l-34.3,42.7c-1.9,2.4-4.9,4.9-10.4,4.9c-5.3,0-8.5-2.7-10.3-4.9l-34.3-42.8v40    c0,5.2-3.1,7.7-9.5,7.7c-6.3,0-9.4-2.6-9.4-7.7V30.7c0-5.6,3.3-8.5,9.5-8.5c5.8,0,8.7,2.4,11.7,5.9l42.4,52.8l42.5-52.8    c2.9-3.6,5.8-5.8,11.7-5.9c6.3,0,9.5,3,9.5,8.5v62.4c0,5.2-3.1,7.7-9.4,7.7c-6.3,0-9.5-2.6-9.5-7.7V53.2H451.8z"/>
		<path class="st0" d="M497.7,35.9c-6.5,0-9.8-2.6-9.8-7.8c0-5.2,3.3-7.7,9.8-7.7c6.4,0,9.6,2.6,9.6,7.7    C507.4,33.4,504.1,35.9,497.7,35.9z M488.5,48.3c0-5,3.1-7.6,9.2-7.6c6.3,0,9.3,2.6,9.3,7.6v44.8c0,5.2-3,7.7-9.2,7.7    s-9.3-2.6-9.3-7.7V48.3z"/>
		<path class="st0" d="M554.2,100.3c-20.1,0-30.2-6.4-30.2-19.3V60.4c0-12.8,10.1-19.2,30.2-19.2h22.6c20.2,0,30.3,6.4,30.3,19.2V81    c0,12.9-10.1,19.3-30.3,19.3H554.2z M588.6,60.3c0-2.9-3.7-4.4-10.9-4.4h-24.3c-7.3,0-10.9,1.5-10.9,4.4v21    c0,2.9,3.6,4.4,10.9,4.4h24.3c7.2,0,10.9-1.5,10.9-4.4V60.3z"/>
	</g>
</g>
</svg>