<?xml version="1.0" encoding="utf-8"?>
<!-- Svg Vector Icons : http://www.onlinewebfonts.com/icon -->
<!DOCTYPE svg PUBLIC "-//W3C//DTD SVG 1.1//EN" "http://www.w3.org/Graphics/SVG/1.1/DTD/svg11.dtd">
<svg version="1.1" xmlns="http://www.w3.org/2000/svg" xmlns:xlink="http://www.w3.org/1999/xlink" x="0px" y="0px" viewBox="0 0 1000 1000" enable-background="new 0 0 1000 1000" xml:space="preserve">
<metadata> Svg Vector Icons : http://www.onlinewebfonts.com/icon </metadata>
<g><g><g><g><path d="M805.8,276.3c-42.5-75.9-126.3-119.5-216.1-105.1c-35.2-74-109-121-191.9-121C280.5,50.2,185,145.7,185,263.1c0,4.8,0.2,9.8,0.6,15C84.3,301.2,10,392.6,10,498c0,124.5,101.3,225.7,225.7,225.7h178.4v-37.3H235.7c-103.9,0-188.4-84.5-188.4-188.4c0-93,69.4-173.1,161.5-186.3c4.9-0.7,9.4-3.4,12.3-7.4c2.9-4,4.2-9,3.4-14c-1.6-10.1-2.4-19-2.4-27.3c0-96.8,78.8-175.6,175.6-175.6c72.7,0,136.8,43.8,163.4,111.6c3.3,8.6,12.5,13.4,21.5,11.4c81.8-18.9,158.8,20.6,194.2,91.1c2.7,5.4,8,9.2,14,10.1c92.2,13.1,161.7,93.2,161.7,186.3c0,103.9-84.6,188.4-188.5,188.4H526.8v37.3h237.5c124.5,0,225.7-101.2,225.7-225.7C990,389.6,911.4,296,805.8,276.3z"/></g><g><path d="M586.2,488.6c7.5-7.4,7.5-19.5,0-26.9L479.8,355.3c-3.7-3.7-8.6-5.5-13.4-5.5l-0.3,0.1c-0.1,0-0.2-0.1-0.3-0.1c-4.9,0-9.8,1.9-13.4,5.5L345.9,461.7c-7.4,7.4-7.4,19.5,0,26.9c7.4,7.5,19.5,7.5,26.9,0l73.8-73.8v515.9c0,10.6,8.5,19.1,19.1,19.1c10.5,0,19-8.5,19-19.1V414.1l74.5,74.5C566.7,496.1,578.7,496.1,586.2,488.6z"/></g></g></g><g></g><g></g><g></g><g></g><g></g><g></g><g></g><g></g><g></g><g></g><g></g><g></g><g></g><g></g><g></g></g>
</svg>