<?xml version="1.0" encoding="UTF-8"?>
<!-- Generator: Adobe Illustrator 23.0.3, SVG Export Plug-In . SVG Version: 6.00 Build 0)  -->
<svg version="1.1" id="Layer_1" xmlns="http://www.w3.org/2000/svg" xmlns:xlink="http://www.w3.org/1999/xlink" x="0px" y="0px" width="72px" height="72px" viewBox="0 0 72 72" style="enable-background:new 0 0 72 72;" xml:space="preserve">
<style type="text/css">
	.st0{fill:url(#SVGID_1_);}
</style>
<linearGradient id="SVGID_1_" gradientUnits="userSpaceOnUse" x1="36" y1="72" x2="36" y2="2.784">
	<stop offset="0" style="stop-color:#323298"/>
	<stop offset="0.3196" style="stop-color:#1E64BB"/>
	<stop offset="0.6182" style="stop-color:#0E8CD7"/>
	<stop offset="0.8549" style="stop-color:#04A4E9"/>
	<stop offset="1" style="stop-color:#00ADEF"/>
</linearGradient>
<path class="st0" d="M10.2,22.8V9.3c0-3.6,3-6.5,6.5-6.5c3.6,0,6.5,3,6.5,6.5v13.5c0,3.6-3,6.5-6.5,6.5  C13.1,29.4,10.2,26.5,10.2,22.8z M22,69.3c-0.8,0-1.3,0.6-1.3,1.3c0,0.8,0.6,1.3,1.3,1.3s1.3-0.6,1.3-1.3  C23.2,69.9,22.7,69.3,22,69.3z M16.7,65.4c-0.8,0-1.3,0.6-1.3,1.3s0.6,1.3,1.3,1.3c0.8,0,1.3-0.6,1.3-1.3C18,66,17.5,65.4,16.7,65.4  z M55.1,2.8c-3.7,0-6.7,2.9-6.7,6.5v11c0,5.1-4.1,9.1-9.2,9.1h-6.7c-12.3,0-22.3,9.5-22.3,21.9v11.5v2.3c0,0.8,0.6,1.3,1.3,1.3  s1.3-0.6,1.3-1.3v-6.5c0-0.8,0.6-1.3,1.3-1.3c0.8,0,1.3,0.6,1.3,1.3v3.6c0,0.8,0.6,1.3,1.3,1.3c0.8,0,1.3-0.6,1.3-1.3v-6.1  c0-0.8,0.6-1.3,1.3-1.3c0.8,0,1.3,0.6,1.3,1.3v10c0,0.8,0.6,1.3,1.3,1.3c0.8,0,1.3-0.6,1.3-1.3v-4.9v-9.9c0-5.1,4.1-8.7,9.2-8.7h6.7  c3.3,0,6.3-0.7,9.2-2v22.1c0,3.6,3,6.5,6.5,6.5c3.6,0,6.5-3,6.5-6.5V20.4V9.3C61.8,5.8,58.9,2.8,55.1,2.8z"/>
</svg>