<?xml version="1.0" encoding="UTF-8"?>
<!-- Generator: Adobe Illustrator 21.0.2, SVG Export Plug-In . SVG Version: 6.00 Build 0)  -->
<svg version="1.1" id="Layer_1" xmlns="http://www.w3.org/2000/svg" xmlns:xlink="http://www.w3.org/1999/xlink" x="0px" y="0px" width="258px" height="67px" viewBox="0 0 258 67" style="enable-background:new 0 0 258 67;" xml:space="preserve">
<style type="text/css">
	.st0{fill:#FFD200;}
	.st1{fill:#8A8C8E;}
</style>
<g>
	<path class="st0" d="M62.3,37.5l-4.4,4.4l1.9-3.2l-8.7,4.6l5.8-5.2l-13.3,2.4l10.8-4.9l-17.2-2.1l17.2-2.1l-10.8-4.9L57,29   l-5.8-5.2l8.7,4.6l-1.9-3.2l4.4,4.4C64.5,31.7,64.5,35.3,62.3,37.5 M65.1,25.5L39.6,0l10.7,17.7L24.5,4.2l19.7,17.5l-33.9-6.2   l29.1,13.2L0,33.5l39.4,4.8L10.3,51.5l33.9-6.2L24.5,62.8l25.8-13.5L39.6,67l25.5-25.5C69.6,37.1,69.6,29.9,65.1,25.5"/>
	<path class="st1" d="M162.5,45.3c1.1,0,2.1,0.2,3.1,0.5c0.2-0.3,0.3-0.7,0.4-1.1c-1-0.3-2.1-0.6-3.3-0.6c-2.2,0-4.1,0.8-4.5,3   c0,0.2,0,0.4,0,0.5c0,1.8,1.7,2.2,3.5,2.6c1.4,0.3,2.8,0.5,2.8,1.7c0,0.1,0,0.2,0,0.3c-0.2,1.5-1.7,1.9-3.2,1.9   c-1.2,0-2.4-0.3-3.5-0.7c-0.2,0.3-0.3,0.7-0.4,1.1c1.1,0.4,2.4,0.7,3.8,0.7c2.3,0,4.2-0.8,4.5-3c0-0.2,0-0.4,0-0.6   c0-1.9-1.7-2.3-3.5-2.6c-1.5-0.3-2.8-0.5-2.8-1.7c0-0.1,0-0.2,0-0.3C159.7,45.7,161.1,45.3,162.5,45.3 M238.8,55.4   c0.4,0,0.8-0.1,1.2-0.2l1.2-7.8c-0.4,0-0.8,0.1-1.2,0.2L238.8,55.4z M170.1,45.1c-0.4,0-0.8,0.1-1.2,0.2l-0.4,2.3h-1.2   c-0.2,0.3-0.3,0.7-0.4,1.1h1.5l-0.6,3.9c-0.1,0.4-0.1,0.7-0.1,1c0,0.2,0,0.4,0.1,0.6c0.3,1,1.5,1.2,2.2,1.2c0.2,0,0.3,0,0.5,0   c0.2-0.3,0.3-0.6,0.4-1c-1.3,0-1.9-0.2-1.9-1.1c0-0.1,0-0.3,0-0.4l0.7-4.2h2c0.2-0.3,0.3-0.7,0.4-1.1h-2.2L170.1,45.1z M234.2,44.1   c-0.5,0-0.9,0.1-1.2,0.2l-1.7,10.9h6c0.2-0.3,0.3-0.7,0.4-1.1h-5L234.2,44.1z M241.1,44.2c-0.5,0-0.9,0.4-1,0.8   c-0.1,0.5,0.2,0.8,0.7,0.8c0.5,0,0.9-0.4,1-0.8C241.9,44.6,241.6,44.2,241.1,44.2 M150.1,47.8c-0.8,0.3-1.2,0.8-1.4,1.6l-0.9,6   c0.4,0,0.8-0.1,1.2-0.2l0.8-5.2c0.1-0.7,0.4-1,0.9-1.2c0.4-0.2,0.9-0.3,1.5-0.3c0.2,0,0.6,0,0.8,0.1c0.2-0.3,0.3-0.6,0.4-1   c-0.3-0.1-0.7-0.1-1.1-0.1C151.6,47.4,150.7,47.5,150.1,47.8 M144.8,53c-0.1,0.5-0.3,0.8-0.8,1c-0.4,0.2-1,0.2-1.4,0.2   c-1.3,0-1.9-0.7-1.9-1.9c0-0.2,0-0.4,0-0.6l0.7-4.5c-0.4,0-0.8,0.1-1.2,0.2l-0.7,4.4c0,0.3-0.1,0.5-0.1,0.7c0,1.6,1,2.7,2.8,2.7   c0.7,0,1.6-0.1,2.3-0.4c0.8-0.3,1.2-0.7,1.3-1.6l0.9-6c-0.4,0-0.8,0.1-1.2,0.2L144.8,53z M136.8,51.4c-0.3,1.7-1.7,2.9-3.3,2.9   c-1.4,0-2.5-1-2.5-2.4c0-0.2,0-0.3,0-0.5c0.3-1.7,1.7-2.9,3.3-2.9c1.4,0,2.4,1,2.4,2.4C136.9,51.1,136.9,51.2,136.8,51.4    M134.6,47.4c-2.2,0-4.3,1.7-4.7,4c0,0.2-0.1,0.5-0.1,0.7c0,2,1.5,3.3,3.5,3.3c2.2,0,4.3-1.7,4.7-4c0-0.2,0.1-0.5,0.1-0.7   C138.1,48.7,136.6,47.4,134.6,47.4 M179.1,51.4c-0.3,1.7-1.7,2.9-3.3,2.9c-1.4,0-2.5-1-2.5-2.4c0-0.2,0-0.3,0-0.5   c0.3-1.7,1.7-2.9,3.3-2.9c1.4,0,2.4,1,2.4,2.4C179.1,51.1,179.1,51.2,179.1,51.4 M176.8,47.4c-2.2,0-4.3,1.7-4.7,4   c0,0.2-0.1,0.5-0.1,0.7c0,2,1.5,3.3,3.5,3.3c2.2,0,4.3-1.7,4.7-4c0-0.2,0.1-0.5,0.1-0.7C180.3,48.7,178.8,47.4,176.8,47.4    M197,50.2c-0.1,0.4-0.3,0.7-1,0.7h-4.2c0.4-1.5,1.7-2.4,3.1-2.4c1.1,0,2.1,0.5,2.1,1.5C197,50,197,50.1,197,50.2 M195.1,47.4   c-2.4,0-4.2,1.7-4.6,4c0,0.3-0.1,0.5-0.1,0.8c0,2,1.3,3.2,3.6,3.2c0.8,0,1.6-0.1,2.3-0.4c0-0.2,0-0.3,0-0.5c0-0.2,0-0.4-0.1-0.5   c-0.6,0.2-1.4,0.3-2.1,0.3c-1.7,0-2.7-0.9-2.7-2.5h4.5c1.1,0,1.8-0.3,2-1.5c0-0.2,0-0.3,0-0.5C198.1,48.4,196.9,47.4,195.1,47.4    M224.3,51.4c-0.3,1.7-1.7,2.9-3.3,2.9c-1.4,0-2.5-1-2.5-2.4c0-0.2,0-0.3,0-0.5c0.3-1.7,1.7-2.9,3.3-2.9c1.4,0,2.4,1,2.4,2.4   C224.4,51.1,224.4,51.2,224.3,51.4 M222.1,47.4c-2.2,0-4.3,1.7-4.7,4c0,0.2-0.1,0.5-0.1,0.7c0,2,1.5,3.3,3.5,3.3   c2.2,0,4.3-1.7,4.7-4c0-0.2,0.1-0.5,0.1-0.7C225.6,48.7,224.1,47.4,222.1,47.4 M202.4,48.4c0.8,0,1.6,0.2,2.3,0.3   c0.2-0.3,0.3-0.6,0.4-1c-0.7-0.2-1.6-0.4-2.5-0.4c-1.6,0-3.1,0.5-3.4,2.2c0,0.2,0,0.3,0,0.4c0,1.4,1.4,1.7,2.7,1.9   c1,0.2,1.8,0.3,1.8,1.1c0,0.1,0,0.1,0,0.2c-0.1,0.9-1,1.2-2.1,1.2c-0.8,0-1.7-0.2-2.5-0.4c-0.2,0.3-0.3,0.6-0.4,1   c0.8,0.3,1.7,0.4,2.7,0.4c1.7,0,3.2-0.5,3.5-2.2c0-0.2,0-0.3,0-0.4c0-1.4-1.4-1.7-2.7-1.9c-0.9-0.2-1.8-0.3-1.8-1.1   c0-0.1,0-0.1,0-0.2C200.5,48.7,201.4,48.4,202.4,48.4 M183.6,47.8c-0.8,0.3-1.2,0.8-1.4,1.6l-0.9,6c0.4,0,0.8-0.1,1.2-0.2l0.8-5.2   c0.1-0.7,0.4-1,0.9-1.2c0.4-0.2,0.9-0.3,1.5-0.3c0.2,0,0.6,0,0.8,0.1c0.2-0.3,0.3-0.6,0.4-1c-0.3-0.1-0.7-0.1-1.1-0.1   C185.1,47.4,184.3,47.5,183.6,47.8 M186.9,55.4c0.4,0,0.8-0.1,1.2-0.2l1.2-7.8c-0.4,0-0.8,0.1-1.2,0.2L186.9,55.4z M189.3,44.2   c-0.5,0-0.9,0.4-1,0.8c-0.1,0.5,0.2,0.8,0.7,0.8c0.5,0,0.9-0.4,1-0.8C190.1,44.6,189.7,44.2,189.3,44.2 M218.9,44.3H211   c-0.2,0.3-0.3,0.7-0.4,1.1h3.4l-1.6,10c0.5,0,0.9-0.1,1.2-0.2l1.5-9.7h3.3C218.7,45.1,218.8,44.7,218.9,44.3 M99.2,44.2   c-0.5,0-0.9,0.4-1,0.8c-0.1,0.5,0.2,0.8,0.7,0.8c0.5,0,0.9-0.4,1-0.8C100,44.6,99.7,44.2,99.2,44.2 M96.8,55.4   c0.4,0,0.8-0.1,1.2-0.2l1.2-7.8c-0.4,0-0.8,0.1-1.2,0.2L96.8,55.4z M88.8,47.2c-0.2,1.4-1.4,1.9-2.6,1.9h-2.7l0.6-3.7h2.6   c1.3,0,2.2,0.3,2.2,1.4C88.8,47,88.8,47.1,88.8,47.2 M88.8,51.7c0,0.1,0,0.3,0,0.4c-0.3,1.6-1.4,2-2.8,2h-3.3l0.6-3.9h3.1   C87.8,50.2,88.8,50.5,88.8,51.7 M90,47.1c0-0.2,0-0.4,0-0.5c0-1.6-1.3-2.2-3.3-2.2h-3.7l-1.7,10.9h4.8c1.8,0,3.5-0.9,3.8-3   c0-0.2,0-0.4,0-0.6c0-1.2-0.6-1.9-1.7-2.2C89.3,48.9,89.9,48.2,90,47.1 M104.8,47.4c-0.7,0-1.6,0.1-2.3,0.4   c-0.8,0.3-1.2,0.8-1.4,1.6l-0.9,6c0.4,0,0.8-0.1,1.2-0.2l0.9-5.4c0.1-0.5,0.3-0.8,0.8-1c0.5-0.2,1.1-0.2,1.5-0.2   c1.3,0,1.9,0.7,1.9,1.9c0,0.2,0,0.4,0,0.6l-0.7,4.5c0.4,0,0.8-0.1,1.2-0.2l0.7-4.4c0-0.3,0.1-0.5,0.1-0.7   C107.7,48.4,106.7,47.4,104.8,47.4 M253.8,50.2c-0.1,0.4-0.3,0.7-1,0.7h-4.2c0.4-1.5,1.7-2.4,3.1-2.4c1.1,0,2.1,0.5,2.1,1.5   C253.8,50,253.8,50.1,253.8,50.2 M251.9,47.4c-2.4,0-4.2,1.7-4.6,4c0,0.3-0.1,0.5-0.1,0.8c0,2,1.3,3.2,3.6,3.2   c0.8,0,1.6-0.1,2.3-0.4c0-0.2,0-0.3,0-0.5c0-0.2,0-0.4-0.1-0.5c-0.6,0.2-1.4,0.3-2.1,0.3c-1.7,0-2.7-0.9-2.7-2.5h4.5   c1.1,0,1.8-0.3,2-1.5c0-0.2,0-0.3,0-0.5C254.9,48.4,253.7,47.4,251.9,47.4 M93.5,47.8c-0.8,0.3-1.2,0.8-1.4,1.6l-0.9,6   c0.4,0,0.8-0.1,1.2-0.2l0.8-5.2c0.1-0.7,0.4-1,0.9-1.2c0.4-0.2,0.9-0.3,1.5-0.3c0.2,0,0.6,0,0.8,0.1c0.2-0.3,0.3-0.6,0.4-1   c-0.3-0.1-0.7-0.1-1.1-0.1C95,47.4,94.2,47.5,93.5,47.8 M115.5,49.7l-0.5,3.2c-0.1,0.4-0.3,0.7-0.7,0.8c-0.5,0.2-1.1,0.3-1.6,0.3   c-1.4,0-2.3-0.7-2.3-2.1c0-0.2,0-0.4,0-0.6c0.3-1.9,1.6-2.8,3.2-2.8c0.5,0,1,0.1,1.4,0.2c0.4,0.2,0.5,0.4,0.5,0.8   C115.6,49.5,115.5,49.6,115.5,49.7 M115.9,47.8c-0.6-0.2-1.5-0.4-2.2-0.4c-2.5,0-4.1,1.8-4.4,3.9c0,0.3-0.1,0.5-0.1,0.8   c0,1.8,1.1,3.1,3.2,3.1c0.7,0,1.7-0.2,2.4-0.6l-0.1,0.9c-0.3,1.6-1.4,2.1-2.8,2.1c-0.8,0-1.7-0.2-2.4-0.4c-0.2,0.3-0.3,0.6-0.4,1   c0.7,0.3,1.6,0.5,2.5,0.5c2.2,0,3.8-0.8,4.2-3.3l0.9-5.9c0-0.1,0-0.3,0-0.4C116.8,48.4,116.5,48,115.9,47.8 M130.6,44.1l-4.1,4.9   l-2.3-4.9c-0.5,0-0.9,0.1-1.3,0.3l2.9,5.9l-0.8,5.1c0.5,0,0.9-0.1,1.2-0.2l0.8-4.8l4.8-5.9C131.4,44.2,131,44.1,130.6,44.1    M245.2,47.5l0.1-0.9c0.2-1.3,0.8-1.7,1.9-1.7c0.2,0,0.3,0,0.5,0c0.2-0.3,0.3-0.6,0.4-1c-0.3-0.1-0.6-0.1-0.9-0.1   c-0.9,0-1.9,0.3-2.5,1.2c-0.3,0.5-0.4,1-0.5,1.6l-0.1,0.9h-1.2c-0.2,0.3-0.3,0.7-0.4,1.1h1.4l-1.1,6.8c0.4,0,0.8-0.1,1.2-0.2l1-6.5   h2c0.2-0.3,0.3-0.7,0.4-1.1H245.2z M203.5,24.4c-0.5,2.9-2.9,4.9-5.5,4.9c-2.3,0-4-1.6-4-4c0-0.3,0-0.6,0.1-0.9   c0.4-2.9,2.9-4.9,5.5-4.9c2.3,0,4,1.6,4,4C203.6,23.8,203.6,24.1,203.5,24.4 M200.2,15.4c-5,0-9.7,3.8-10.6,9   c-0.1,0.5-0.1,1-0.1,1.5c0,4.5,3.3,7.5,7.8,7.5c5,0,9.7-3.8,10.6-9c0.1-0.5,0.1-1,0.1-1.5C208.1,18.4,204.7,15.4,200.2,15.4    M101.2,24.4c0.4-2.9,2.9-4.9,5.5-4.9c2.3,0,4,1.6,4,4c0,0.3,0,0.6-0.1,0.9c-0.5,2.9-2.9,4.9-5.5,4.9c-2.3,0-4-1.6-4-4   C101.2,25,101.2,24.7,101.2,24.4 M96.8,24.4c-0.1,0.5-0.1,1-0.1,1.5c0,4.5,3.3,7.5,7.8,7.5c5,0,9.7-3.8,10.6-9   c0.1-0.5,0.1-1,0.1-1.5c0-4.5-3.4-7.5-7.8-7.5C102.4,15.4,97.6,19.2,96.8,24.4 M251.9,15.4c-1.5,0-3.5,0.4-5,1   c-0.6,0.2-1.2,0.5-1.6,0.9c-1.1-1.2-2.6-1.9-4.6-1.9c-1.5,0-3.5,0.4-5,0.9c-1.9,0.7-2.9,1.9-3.3,4.1l-2.1,13.1   c1.7,0,3.2-0.2,4.6-0.9l1.8-11.2c0.1-0.8,0.6-1.3,1.3-1.6c0.5-0.2,1.4-0.3,2-0.3c1.8,0,2.6,1.2,2.6,2.9c0,0.3,0,0.6-0.1,0.8   L241,33.5c1.7,0,3.2-0.2,4.6-0.9l1.8-11.2c0.1-0.8,0.5-1.3,1.3-1.6c0.5-0.2,1.4-0.3,2-0.3c1.8,0,2.7,1.2,2.7,2.9   c0,0.3,0,0.6-0.1,0.8l-1.6,10.3c1.7,0,3.3-0.2,4.6-0.9l1.5-9.4c0.1-0.5,0.1-1.1,0.1-1.6C258,17.9,255.7,15.4,251.9,15.4 M84.7,33.5   c1.8,0,3.4-0.3,4.9-0.9l3.1-19.6H99c0.8-1.3,1.3-2.8,1.6-4.5H82.5c-0.8,1.3-1.3,2.8-1.6,4.5H88L84.7,33.5z M121.7,25.3   c0-0.3,0-0.6,0.1-0.9c0.4-2.9,2.9-4.9,5.5-4.9c2.3,0,4,1.6,4,4c0,0.3,0,0.6-0.1,0.9c-0.5,2.9-2.9,4.9-5.5,4.9   C123.4,29.3,121.7,27.7,121.7,25.3 M135.6,24.4c0.1-0.5,0.1-1,0.1-1.5c0-4.5-3.4-7.5-7.8-7.5c-5,0-9.7,3.8-10.6,9   c-0.1,0.5-0.1,1-0.1,1.5c0,4.5,3.3,7.5,7.8,7.5C130,33.5,134.8,29.7,135.6,24.4 M172.2,28.7l0.9-6h5.5c2.2,0,4,0.4,4,2.4   c0,0.2,0,0.4-0.1,0.6c-0.4,2.5-2.4,3-4.6,3H172.2z M174.7,12.9h4.3c2,0,3.5,0.5,3.5,2.3c0,0.2,0,0.4-0.1,0.6   c-0.4,2.2-2.2,2.8-4.2,2.8h-4.5L174.7,12.9z M187.1,26.1c0.1-0.4,0.1-0.9,0.1-1.3c0-2.4-1.2-4.1-3-4.8c1.6-1.2,2.8-3.1,3.1-5.2   c0.1-0.4,0.1-0.7,0.1-1.1c0-3.4-2.9-5.4-7.9-5.4h-8.7l-3.9,24.7h11.1C182.4,33.1,186.3,30.7,187.1,26.1 M224.1,24.4   c-0.5,2.9-2.9,4.9-5.5,4.9c-2.3,0-4-1.6-4-4c0-0.3,0-0.6,0.1-0.9c0.4-2.9,2.9-4.9,5.5-4.9c2.3,0,4,1.6,4,4   C224.2,23.8,224.1,24.1,224.1,24.4 M220.8,15.4c-5,0-9.7,3.8-10.6,9c-0.1,0.5-0.1,1-0.1,1.5c0,4.5,3.3,7.5,7.8,7.5   c5,0,9.7-3.8,10.6-9c0.1-0.5,0.1-1,0.1-1.5C228.6,18.4,225.3,15.4,220.8,15.4 M148.2,15.4c-1.6,0-3.8,0.3-5.4,0.9   c-2,0.8-3,1.9-3.4,4.1l-2.1,13c1.7,0,3.2-0.2,4.6-0.9l1.8-11.1c0.1-0.8,0.5-1.3,1.4-1.6c0.7-0.3,1.7-0.4,2.2-0.4c2,0,3,1.3,3,3   c0,0.3,0,0.6-0.1,0.8l-1.6,10.1c1.7,0,3.2-0.2,4.6-0.9l1.5-9.3c0.1-0.6,0.1-1.1,0.1-1.6C154.9,17.8,152.5,15.4,148.2,15.4"/>
</g>
</svg>